<svg width="101" height="116" viewBox="0 0 101 116" fill="none" xmlns="http://www.w3.org/2000/svg">
<path d="M25.4279 0C25.4279 0 20.476 3.39423 20.1394 6.05289C19.8029 8.77644 24.3702 10.6779 23.8894 13.3798C23.5769 15.1659 19.899 17.0769 19.899 17.0769C19.899 17.0769 29.2019 16.2692 30.0673 12.6779C30.7644 9.83654 25.3077 8.6851 24.5385 5.86298C24.0337 3.95433 25.4279 0 25.4279 0ZM76.9663 1.17548C76.9663 1.17548 71.0048 4.4399 70.9808 7.29327C70.9567 9.03365 74.4423 9.37741 74.5385 11.1154C74.6587 13.1731 70.8606 16.0865 70.8606 16.0865C70.8606 16.0865 78.9375 15.1707 80.0192 12.0072C80.6683 10.1394 77.7596 8.6875 77.2308 6.78365C76.726 4.98077 76.9663 1.17548 76.9663 1.17548ZM51.2692 1.23798C51.2692 1.23798 44.8029 4.54327 45.2837 7.35577C45.6202 9.26202 50.2356 7.98558 50.5 9.90385C50.9087 13.0313 43.3846 16.149 43.3846 16.149C43.3846 16.149 56.9663 15.8029 57.5192 10.7957C57.7837 8.42067 52.7115 8.92308 51.5336 6.84615C50.5961 5.21875 51.2692 1.23798 51.2692 1.23798ZM0.5 21.363V25.6899H100.5V21.363H0.5ZM4.34615 30.2572C0.865385 51.1466 8.40865 63.4543 18.4327 70.6899C17.5673 64.7284 15.0433 58.887 10.0048 53.3341C19.6106 55.8582 27.1587 65.0649 30.524 74.2957C31.0769 69.7764 31.0769 67.6851 35.2115 63.6707C34.4663 69.6322 37.9038 70.0409 40.3077 69.2957C46.3894 67.3966 48.8654 59.8005 42.8558 50.3293C54.2981 55.7861 54.4663 61.9639 56.3894 70.4495C55.8125 62.4688 62.2308 59.2716 66.8942 62.2764C56.0529 67.7332 64.9231 72.4207 68.5529 73.5745C78.1683 76.6514 85.3798 62.4447 89.5144 51.6995C90.6442 56.4591 89.7067 61.2428 87.9519 66.0024C95.0673 58.4784 99.4663 47.1803 96.6538 30.2572H4.34615ZM48.649 72.3726L6.99038 96.339C7.63942 100.762 9.15385 104.608 11.5096 107.998L33.625 97.3966L14.7067 111.796C15.524 112.613 16.4135 113.382 17.351 114.127L35.3077 103.815C35.3077 103.647 35.2837 103.454 35.2837 103.286C35.2837 94.3438 42.6154 87.0361 51.5817 87.0361C54.1298 87.0361 56.5337 87.613 58.6731 88.6466C58.0962 85.4255 56.9183 82.1322 55.1154 79.2236L32.3029 88.863L52.1346 75.2812C51.0769 74.1995 49.9231 73.2139 48.649 72.3726ZM62.8077 86.2188C63.1923 87.9495 63.4327 89.6803 63.5288 91.363L63.5769 92.3005C66.2452 95.1851 67.8798 99.0553 67.8798 103.286C67.8798 105.161 67.5673 106.964 66.9663 108.623L88.9375 114.488C90.0433 112.974 91.0048 111.411 91.774 109.825L76.6058 103.887L93.4567 105.546C93.6731 104.825 93.8413 104.127 93.9856 103.406L70.6442 95.1611L94.4904 98.887C94.5385 97.4928 94.4663 96.0745 94.2981 94.6322L62.8077 86.2188ZM51.5817 91.5313C45.0433 91.5313 39.7788 96.7716 39.7788 103.286C39.7788 109.8 45.0433 115.041 51.5817 115.041C58.1442 115.041 63.4087 109.8 63.4087 103.286C63.4087 96.7716 58.1442 91.5313 51.5817 91.5313ZM50.4038 94.3678C60.9327 94.3678 64.4423 111.579 50.4038 111.579C56.7981 106.026 57.5673 100.305 50.4038 94.3678ZM50.4519 96.7236C45.2596 101.026 45.8125 105.185 50.4519 109.224C40.2596 109.224 42.8077 96.7236 50.4519 96.7236Z" fill="#56B972"/>
</svg>
