<svg width="100" height="116" viewBox="0 0 100 116" fill="none" xmlns="http://www.w3.org/2000/svg">
<path d="M24.9279 0C24.9279 0 19.976 3.39423 19.6394 6.05289C19.3029 8.77644 23.8702 10.6779 23.3894 13.3798C23.0769 15.1659 19.399 17.0769 19.399 17.0769C19.399 17.0769 28.7019 16.2692 29.5673 12.6779C30.2644 9.83654 24.8077 8.6851 24.0385 5.86298C23.5337 3.95433 24.9279 0 24.9279 0ZM76.4663 1.17548C76.4663 1.17548 70.5048 4.4399 70.4808 7.29327C70.4567 9.03365 73.9423 9.37741 74.0385 11.1154C74.1587 13.1731 70.3606 16.0865 70.3606 16.0865C70.3606 16.0865 78.4375 15.1707 79.5192 12.0072C80.1683 10.1394 77.2596 8.6875 76.7308 6.78365C76.226 4.98077 76.4663 1.17548 76.4663 1.17548ZM50.7692 1.23798C50.7692 1.23798 44.3029 4.54327 44.7837 7.35577C45.1202 9.26202 49.7356 7.98558 50 9.90385C50.4087 13.0313 42.8846 16.149 42.8846 16.149C42.8846 16.149 56.4663 15.8029 57.0192 10.7957C57.2837 8.42067 52.2115 8.92308 51.0336 6.84615C50.0961 5.21875 50.7692 1.23798 50.7692 1.23798ZM0 21.363V25.6899H100V21.363H0ZM3.84615 30.2572C0.365385 51.1466 7.90865 63.4543 17.9327 70.6899C17.0673 64.7284 14.5433 58.887 9.50481 53.3341C19.1106 55.8582 26.6587 65.0649 30.024 74.2957C30.5769 69.7764 30.5769 67.6851 34.7115 63.6707C33.9663 69.6322 37.4038 70.0409 39.8077 69.2957C45.8894 67.3966 48.3654 59.8005 42.3558 50.3293C53.7981 55.7861 53.9663 61.9639 55.8894 70.4495C55.3125 62.4688 61.7308 59.2716 66.3942 62.2764C55.5529 67.7332 64.4231 72.4207 68.0529 73.5745C77.6683 76.6514 84.8798 62.4447 89.0144 51.6995C90.1442 56.4591 89.2067 61.2428 87.4519 66.0024C94.5673 58.4784 98.9663 47.1803 96.1538 30.2572H3.84615ZM48.149 72.3726L6.49038 96.339C7.13942 100.762 8.65385 104.608 11.0096 107.998L33.125 97.3966L14.2067 111.796C15.024 112.613 15.9135 113.382 16.851 114.127L34.8077 103.815C34.8077 103.647 34.7837 103.454 34.7837 103.286C34.7837 94.3438 42.1154 87.0361 51.0817 87.0361C53.6298 87.0361 56.0337 87.613 58.1731 88.6466C57.5962 85.4255 56.4183 82.1322 54.6154 79.2236L31.8029 88.863L51.6346 75.2812C50.5769 74.1995 49.4231 73.2139 48.149 72.3726ZM62.3077 86.2188C62.6923 87.9495 62.9327 89.6803 63.0288 91.363L63.0769 92.3005C65.7452 95.1851 67.3798 99.0553 67.3798 103.286C67.3798 105.161 67.0673 106.964 66.4663 108.623L88.4375 114.488C89.5433 112.974 90.5048 111.411 91.274 109.825L76.1058 103.887L92.9567 105.546C93.1731 104.825 93.3413 104.127 93.4856 103.406L70.1442 95.1611L93.9904 98.887C94.0385 97.4928 93.9663 96.0745 93.7981 94.6322L62.3077 86.2188ZM51.0817 91.5313C44.5433 91.5313 39.2788 96.7716 39.2788 103.286C39.2788 109.8 44.5433 115.041 51.0817 115.041C57.6442 115.041 62.9087 109.8 62.9087 103.286C62.9087 96.7716 57.6442 91.5313 51.0817 91.5313ZM49.9038 94.3678C60.4327 94.3678 63.9423 111.579 49.9038 111.579C56.2981 106.026 57.0673 100.305 49.9038 94.3678ZM49.9519 96.7236C44.7596 101.026 45.3125 105.185 49.9519 109.224C39.7596 109.224 42.3077 96.7236 49.9519 96.7236Z" fill="#95BD52"/>
</svg>
