<svg width="317" height="308" viewBox="0 0 317 308" fill="none" xmlns="http://www.w3.org/2000/svg">
<path d="M133.428 0C133.428 0 128.476 3.39423 128.139 6.05289C127.803 8.77644 132.37 10.6779 131.889 13.3798C131.577 15.1659 127.899 17.0769 127.899 17.0769C127.899 17.0769 137.202 16.2692 138.067 12.6779C138.764 9.83654 133.308 8.6851 132.538 5.86298C132.034 3.95433 133.428 0 133.428 0ZM184.966 1.17548C184.966 1.17548 179.005 4.4399 178.981 7.29327C178.957 9.03365 182.442 9.37741 182.538 11.1154C182.659 13.1731 178.861 16.0865 178.861 16.0865C178.861 16.0865 186.937 15.1707 188.019 12.0072C188.668 10.1394 185.76 8.6875 185.231 6.78365C184.726 4.98077 184.966 1.17548 184.966 1.17548ZM159.269 1.23798C159.269 1.23798 152.803 4.54327 153.284 7.35577C153.62 9.26202 158.236 7.98558 158.5 9.90385C158.909 13.0313 151.385 16.149 151.385 16.149C151.385 16.149 164.966 15.8029 165.519 10.7957C165.784 8.42067 160.712 8.92308 159.534 6.84615C158.596 5.21875 159.269 1.23798 159.269 1.23798ZM108.5 21.363V25.6899H208.5V21.363H108.5ZM112.346 30.2572C108.865 51.1466 116.409 63.4543 126.433 70.6899C125.567 64.7284 123.043 58.887 118.005 53.3341C127.611 55.8582 135.159 65.0649 138.524 74.2957C139.077 69.7764 139.077 67.6851 143.212 63.6707C142.466 69.6322 145.904 70.0409 148.308 69.2957C154.389 67.3966 156.865 59.8005 150.856 50.3293C162.298 55.7861 162.466 61.9639 164.389 70.4495C163.813 62.4688 170.231 59.2716 174.894 62.2764C164.053 67.7332 172.923 72.4207 176.553 73.5745C186.168 76.6514 193.38 62.4447 197.514 51.6995C198.644 56.4591 197.707 61.2428 195.952 66.0024C203.067 58.4784 207.466 47.1803 204.654 30.2572H112.346ZM156.649 72.3726L114.99 96.339C115.639 100.762 117.154 104.608 119.51 107.998L141.625 97.3966L122.707 111.796C123.524 112.613 124.413 113.382 125.351 114.127L143.308 103.815C143.308 103.647 143.284 103.454 143.284 103.286C143.284 94.3438 150.615 87.0361 159.582 87.0361C162.13 87.0361 164.534 87.613 166.673 88.6466C166.096 85.4255 164.918 82.1322 163.115 79.2236L140.303 88.863L160.135 75.2812C159.077 74.1995 157.923 73.2139 156.649 72.3726ZM170.808 86.2188C171.192 87.9495 171.433 89.6803 171.529 91.363L171.577 92.3005C174.245 95.1851 175.88 99.0553 175.88 103.286C175.88 105.161 175.567 106.964 174.966 108.623L196.937 114.488C198.043 112.974 199.005 111.411 199.774 109.825L184.606 103.887L201.457 105.546C201.673 104.825 201.841 104.127 201.986 103.406L178.644 95.1611L202.49 98.887C202.538 97.4928 202.466 96.0745 202.298 94.6322L170.808 86.2188ZM159.582 91.5313C153.043 91.5313 147.779 96.7716 147.779 103.286C147.779 109.8 153.043 115.041 159.582 115.041C166.144 115.041 171.409 109.8 171.409 103.286C171.409 96.7716 166.144 91.5313 159.582 91.5313ZM158.404 94.3678C168.933 94.3678 172.442 111.579 158.404 111.579C164.798 106.026 165.567 100.305 158.404 94.3678ZM158.452 96.7236C153.26 101.026 153.813 105.185 158.452 109.224C148.26 109.224 150.808 96.7236 158.452 96.7236Z" fill="#56B972"/>
<path d="M93.4989 207.305C92.8269 207.305 91.9869 207.137 90.9789 206.801C90.0189 206.513 89.1549 205.961 88.3869 205.145C87.6669 204.329 87.3069 203.129 87.3069 201.545C87.3069 200.153 87.5949 198.329 88.1709 196.073C88.7949 193.817 89.5629 191.297 90.4749 188.513C91.3869 185.681 92.2989 182.729 93.2109 179.657C94.1229 176.537 94.8669 173.417 95.4429 170.297C96.0669 167.177 96.3789 164.177 96.3789 161.297C96.3789 159.521 96.3069 157.865 96.1629 156.329C96.0669 154.793 95.7069 153.569 95.0829 152.657C94.5069 151.697 93.4989 151.217 92.0589 151.217C90.7149 151.217 89.5629 151.625 88.6029 152.441C87.6909 153.209 86.9229 154.217 86.2989 155.465C85.7229 156.713 85.2909 158.033 85.0029 159.425C84.7629 160.817 84.6429 162.113 84.6429 163.313C84.6429 164.081 84.6909 164.801 84.7869 165.473C84.9309 166.097 85.0989 166.673 85.2909 167.201C83.4189 167.201 82.0989 166.697 81.3309 165.689C80.5629 164.633 80.1789 163.409 80.1789 162.017C80.1789 160.529 80.5149 159.041 81.1869 157.553C81.9069 156.065 82.8669 154.697 84.0669 153.449C85.3149 152.153 86.7309 151.121 88.3149 150.353C89.8989 149.585 91.5789 149.201 93.3549 149.201C96.3309 149.201 98.5389 150.377 99.9789 152.729C101.467 155.033 102.211 158.129 102.211 162.017C102.211 164.801 101.899 167.729 101.275 170.801C100.651 173.825 99.8829 176.849 98.9709 179.873C98.0589 182.897 97.1229 185.801 96.1629 188.585C95.2509 191.369 94.4829 193.937 93.8589 196.289C93.2349 198.641 92.9229 200.633 92.9229 202.265C92.9229 203.081 93.0429 203.753 93.2829 204.281C93.5709 204.809 94.1229 205.073 94.9389 205.073C96.2829 205.073 97.8429 204.377 99.6189 202.985C101.395 201.641 103.219 199.793 105.091 197.441C107.011 195.041 108.859 192.353 110.635 189.377C112.459 186.401 114.091 183.305 115.531 180.089C116.971 176.825 118.123 173.633 118.987 170.513C119.851 167.393 120.283 164.513 120.283 161.873C120.283 159.473 119.923 157.721 119.203 156.617C118.483 155.465 117.523 154.721 116.323 154.385C116.995 153.233 117.691 152.393 118.411 151.865C119.179 151.337 119.875 151.073 120.499 151.073C121.507 151.073 122.491 151.721 123.451 153.017C124.411 154.313 124.891 156.329 124.891 159.065C124.891 161.705 124.387 164.705 123.379 168.065C122.419 171.425 121.099 174.929 119.419 178.577C117.739 182.177 115.819 185.681 113.659 189.089C111.499 192.497 109.243 195.569 106.891 198.305C104.539 201.041 102.211 203.225 99.9069 204.857C97.6029 206.489 95.4669 207.305 93.4989 207.305ZM129.538 204.209C126.61 204.209 124.402 203.393 122.914 201.761C121.474 200.177 120.754 198.209 120.754 195.857C120.754 193.697 121.282 191.417 122.338 189.017C123.442 186.617 124.882 184.361 126.658 182.249C128.482 180.137 130.474 178.433 132.634 177.137C134.794 175.793 136.93 175.121 139.042 175.121C140.146 175.121 141.154 175.409 142.066 175.985C143.026 176.561 143.506 177.737 143.506 179.513C143.506 181.337 142.954 183.065 141.85 184.697C140.794 186.281 139.378 187.697 137.602 188.945C135.874 190.193 133.954 191.225 131.842 192.041C129.778 192.809 127.714 193.289 125.65 193.481C125.554 193.961 125.482 194.417 125.434 194.849C125.386 195.281 125.362 195.689 125.362 196.073C125.362 196.793 125.434 197.513 125.578 198.233C125.77 198.953 126.082 199.625 126.514 200.249C126.946 200.825 127.522 201.281 128.242 201.617C129.01 201.953 129.946 202.121 131.05 202.121C133.114 202.121 135.154 201.545 137.17 200.393C139.186 199.193 141.058 197.633 142.786 195.713C144.514 193.793 145.978 191.681 147.178 189.377L148.042 190.025C146.746 192.905 145.09 195.401 143.074 197.513C141.106 199.625 138.946 201.257 136.594 202.409C134.29 203.609 131.938 204.209 129.538 204.209ZM126.01 192.113C127.306 191.681 128.77 191.057 130.402 190.241C132.034 189.377 133.594 188.369 135.082 187.217C136.618 186.065 137.866 184.793 138.826 183.401C139.834 182.009 140.338 180.545 140.338 179.009C140.338 178.481 140.242 178.073 140.05 177.785C139.858 177.497 139.45 177.353 138.826 177.353C137.674 177.353 136.45 177.809 135.154 178.721C133.858 179.585 132.61 180.737 131.41 182.177C130.21 183.617 129.13 185.201 128.17 186.929C127.21 188.657 126.49 190.385 126.01 192.113ZM148.474 221.201C147.418 221.201 146.458 220.865 145.594 220.193C144.73 219.569 144.298 218.513 144.298 217.025C144.298 215.585 144.754 214.241 145.666 212.993C146.53 211.793 147.658 210.665 149.05 209.609C150.442 208.601 151.954 207.665 153.586 206.801C155.266 205.937 156.85 205.121 158.338 204.353C159.01 202.673 159.634 200.873 160.21 198.953C160.834 196.985 161.434 194.825 162.01 192.473C160.186 195.113 158.266 197.321 156.25 199.097C154.282 200.825 152.29 201.689 150.274 201.689C148.546 201.689 147.202 201.041 146.242 199.745C145.33 198.449 144.874 196.769 144.874 194.705C144.874 192.209 145.474 189.833 146.674 187.577C147.922 185.321 149.53 183.329 151.498 181.601C153.466 179.873 155.554 178.529 157.762 177.569C159.97 176.561 162.034 176.057 163.954 176.057C165.346 176.057 166.33 176.297 166.906 176.777C167.53 177.209 167.842 177.737 167.842 178.361C167.842 178.793 167.722 179.129 167.482 179.369C167.242 179.609 167.074 179.753 166.978 179.801C166.738 179.417 166.378 179.153 165.898 179.009C165.418 178.817 164.818 178.721 164.098 178.721C162.226 178.721 160.402 179.273 158.626 180.377C156.898 181.481 155.362 182.897 154.018 184.625C152.674 186.353 151.594 188.153 150.778 190.025C150.01 191.849 149.626 193.529 149.626 195.065C149.626 196.217 149.842 197.105 150.274 197.729C150.754 198.305 151.378 198.593 152.146 198.593C153.538 198.593 155.194 197.681 157.114 195.857C159.082 193.985 160.978 191.729 162.802 189.089C162.946 188.417 163.066 187.817 163.162 187.289C163.306 186.761 163.474 186.089 163.666 185.273C163.81 184.601 164.146 183.833 164.674 182.969C165.25 182.057 166.138 181.601 167.338 181.601C167.578 181.601 167.818 181.625 168.058 181.673C168.298 181.673 168.562 181.721 168.85 181.817C168.85 182.585 168.61 184.001 168.13 186.065C167.698 188.081 167.05 190.457 166.186 193.193C165.37 195.881 164.41 198.665 163.306 201.545C164.89 200.777 166.426 199.793 167.914 198.593C169.45 197.393 170.842 196.025 172.09 194.489C173.338 192.905 174.322 191.201 175.042 189.377L175.978 190.097C175.258 192.257 174.106 194.225 172.522 196.001C170.938 197.777 169.234 199.313 167.41 200.609C165.634 201.905 164.002 202.913 162.514 203.633C161.17 206.849 159.754 209.777 158.266 212.417C156.778 215.105 155.218 217.241 153.586 218.825C152.002 220.409 150.298 221.201 148.474 221.201ZM148.258 218.897C149.218 218.897 150.514 217.937 152.146 216.017C153.826 214.145 155.626 210.905 157.546 206.297C155.626 207.257 153.826 208.241 152.146 209.249C150.514 210.305 149.17 211.409 148.114 212.561C147.058 213.713 146.53 214.985 146.53 216.377C146.53 217.145 146.698 217.745 147.034 218.177C147.37 218.657 147.778 218.897 148.258 218.897ZM177.179 204.425C175.691 204.425 174.443 203.921 173.435 202.913C172.379 201.953 171.851 200.465 171.851 198.449C171.851 196.721 172.235 194.873 173.003 192.905C173.771 190.889 174.827 188.921 176.171 187.001C177.515 185.033 179.027 183.257 180.707 181.673C182.435 180.041 184.235 178.745 186.107 177.785C188.027 176.825 189.923 176.345 191.795 176.345C193.667 176.345 195.227 176.849 196.475 177.857C197.723 178.817 198.347 180.113 198.347 181.745C198.347 182.945 198.011 183.761 197.339 184.193C196.715 184.625 195.875 184.841 194.819 184.841C194.915 184.457 194.987 184.049 195.035 183.617C195.131 183.137 195.179 182.705 195.179 182.321C195.179 181.217 194.915 180.281 194.387 179.513C193.859 178.697 192.947 178.289 191.651 178.289C190.307 178.289 188.939 178.769 187.547 179.729C186.155 180.641 184.811 181.889 183.515 183.473C182.219 185.009 181.067 186.689 180.059 188.513C179.051 190.337 178.259 192.137 177.683 193.913C177.107 195.689 176.819 197.273 176.819 198.665C176.819 200.537 177.467 201.473 178.763 201.473C179.867 201.473 181.067 200.969 182.363 199.961C183.659 198.905 184.979 197.585 186.323 196.001C187.715 194.369 189.035 192.689 190.283 190.961C191.531 189.233 192.635 187.649 193.595 186.209C193.787 185.921 193.907 185.777 193.955 185.777C194.243 185.825 194.603 185.921 195.035 186.065C195.515 186.209 195.923 186.401 196.259 186.641C196.595 186.881 196.763 187.193 196.763 187.577C196.763 188.009 196.547 188.609 196.115 189.377C195.683 190.097 195.203 190.937 194.675 191.897C194.147 192.857 193.667 193.841 193.235 194.849C192.803 195.809 192.587 196.721 192.587 197.585C192.587 198.305 192.779 199.025 193.163 199.745C193.547 200.417 194.171 200.753 195.035 200.753C196.331 200.753 198.035 199.817 200.147 197.945C202.259 196.025 204.395 193.169 206.555 189.377L207.275 190.097C206.267 192.689 204.971 194.969 203.387 196.937C201.803 198.905 200.099 200.441 198.275 201.545C196.499 202.649 194.747 203.201 193.019 203.201C191.243 203.201 189.923 202.673 189.059 201.617C188.243 200.561 187.835 199.409 187.835 198.161C187.835 197.873 187.859 197.561 187.907 197.225C187.955 196.841 188.003 196.457 188.051 196.073C185.987 198.857 184.091 200.945 182.363 202.337C180.683 203.729 178.955 204.425 177.179 204.425ZM228.338 202.481C226.658 202.481 225.386 202.049 224.522 201.185C223.706 200.321 223.298 199.217 223.298 197.873C223.298 196.865 223.466 195.809 223.802 194.705C224.186 193.601 224.546 192.473 224.882 191.321C225.218 190.121 225.386 188.969 225.386 187.865C225.386 186.521 225.098 185.609 224.522 185.129C223.994 184.601 223.322 184.337 222.506 184.337C221.018 184.337 219.506 184.961 217.97 186.209C216.434 187.409 214.946 188.969 213.506 190.889C212.066 192.761 210.722 194.705 209.474 196.721C208.226 198.737 207.122 200.537 206.162 202.121C205.394 202.121 204.674 201.977 204.002 201.689C203.282 201.449 202.73 201.065 202.346 200.537C202.346 200.297 202.61 199.553 203.138 198.305C203.618 197.057 204.194 195.521 204.866 193.697C205.538 191.873 206.138 190.001 206.666 188.081C207.194 186.161 207.458 184.409 207.458 182.825C207.746 182.489 208.202 182.153 208.826 181.817C209.45 181.481 210.098 181.313 210.77 181.313C212.066 181.313 212.714 181.937 212.714 183.185C212.714 183.953 212.498 185.249 212.066 187.073C211.634 188.849 211.082 190.721 210.41 192.689C211.706 190.721 213.146 188.777 214.73 186.857C216.362 184.889 218.09 183.257 219.914 181.961C221.738 180.665 223.562 180.017 225.386 180.017C227.258 180.017 228.602 180.689 229.418 182.033C230.282 183.377 230.714 184.865 230.714 186.497C230.714 187.985 230.474 189.377 229.994 190.673C229.514 191.921 229.01 193.145 228.482 194.345C228.002 195.497 227.762 196.673 227.762 197.873C227.762 198.881 227.954 199.601 228.338 200.033C228.77 200.417 229.298 200.609 229.922 200.609C231.122 200.609 232.322 200.057 233.522 198.953C234.722 197.801 235.874 196.361 236.978 194.633C238.13 192.905 239.138 191.153 240.002 189.377L240.794 190.313C239.786 192.665 238.658 194.753 237.41 196.577C236.162 198.401 234.794 199.841 233.306 200.897C231.818 201.953 230.162 202.481 228.338 202.481ZM44.6317 293.305C44.1037 293.305 43.4797 293.209 42.7597 293.017C42.0877 292.873 41.4157 292.585 40.7437 292.153C40.0717 291.769 39.5197 291.193 39.0877 290.425C38.6557 289.705 38.4397 288.745 38.4397 287.545C38.4397 285.865 38.8477 283.657 39.6637 280.921C40.4797 278.137 41.4157 275.065 42.4717 271.705C43.2877 269.113 44.0797 266.425 44.8477 263.641C45.6157 260.857 46.2397 258.073 46.7197 255.289C47.2477 252.505 47.5117 249.841 47.5117 247.297C47.5117 245.521 47.4397 243.865 47.2957 242.329C47.1997 240.793 46.8397 239.569 46.2157 238.657C45.6397 237.697 44.6317 237.217 43.1917 237.217C41.8477 237.217 40.6957 237.625 39.7357 238.441C38.8237 239.209 38.0557 240.217 37.4317 241.465C36.8557 242.713 36.4237 244.033 36.1357 245.425C35.8957 246.817 35.7757 248.113 35.7757 249.313C35.7757 250.897 35.9917 252.193 36.4237 253.201C34.5517 253.201 33.2317 252.697 32.4637 251.689C31.6957 250.633 31.3117 249.409 31.3117 248.017C31.3117 246.529 31.6477 245.041 32.3197 243.553C33.0397 242.065 33.9997 240.697 35.1997 239.449C36.4477 238.153 37.8637 237.121 39.4477 236.353C41.0317 235.585 42.7117 235.201 44.4877 235.201C47.4637 235.201 49.6717 236.377 51.1117 238.729C52.5997 241.033 53.3437 244.129 53.3437 248.017C53.3437 251.521 52.8397 255.241 51.8317 259.177C50.8717 263.065 49.7917 266.857 48.5917 270.553C47.8237 272.953 47.0797 275.257 46.3597 277.465C45.6877 279.625 45.1357 281.617 44.7037 283.441C44.2717 285.265 44.0557 286.873 44.0557 288.265C44.0557 289.177 44.1997 289.873 44.4877 290.353C44.7757 290.833 45.3517 291.073 46.2157 291.073C47.4157 291.073 48.7357 290.497 50.1757 289.345C51.6637 288.241 53.1517 286.729 54.6397 284.809C56.1757 282.889 57.6397 280.777 59.0317 278.473C60.4717 276.121 61.7677 273.721 62.9197 271.273C64.1197 268.825 65.1037 266.497 65.8717 264.289C66.6877 262.081 67.1917 260.185 67.3837 258.601C68.9677 258.601 70.0717 259.009 70.6957 259.825C71.3677 260.641 71.7037 261.409 71.7037 262.129C71.7037 262.897 71.3917 264.073 70.7677 265.657C70.1437 267.241 69.3997 269.017 68.5357 270.985C67.8157 272.713 67.0717 274.561 66.3037 276.529C65.5837 278.497 64.9597 280.465 64.4317 282.433C63.9517 284.401 63.7117 286.273 63.7117 288.049C63.7117 288.961 63.8317 289.681 64.0717 290.209C64.3117 290.785 64.8637 291.073 65.7277 291.073C67.0717 291.073 68.6317 290.377 70.4077 288.985C72.1837 287.641 74.0077 285.793 75.8797 283.441C77.7997 281.041 79.6477 278.353 81.4237 275.377C83.2477 272.401 84.8797 269.305 86.3197 266.089C87.7597 262.825 88.9117 259.633 89.7757 256.513C90.6397 253.393 91.0717 250.513 91.0717 247.873C91.0717 245.473 90.7117 243.721 89.9917 242.617C89.2717 241.465 88.3117 240.721 87.1117 240.385C87.7837 239.233 88.4797 238.393 89.1997 237.865C89.9677 237.337 90.6637 237.073 91.2877 237.073C92.2957 237.073 93.2797 237.721 94.2397 239.017C95.1997 240.313 95.6797 242.329 95.6797 245.065C95.6797 247.705 95.1757 250.705 94.1677 254.065C93.2077 257.425 91.8877 260.929 90.2077 264.577C88.5277 268.177 86.6077 271.681 84.4477 275.089C82.2877 278.497 80.0317 281.569 77.6797 284.305C75.3277 287.041 72.9997 289.225 70.6957 290.857C68.3917 292.489 66.2557 293.305 64.2877 293.305C63.3757 293.305 62.4397 293.113 61.4797 292.729C60.5197 292.345 59.7037 291.745 59.0317 290.929C58.4077 290.161 58.0957 289.153 58.0957 287.905C58.0957 287.185 58.2157 286.273 58.4557 285.169C58.7437 284.017 59.1037 282.769 59.5357 281.425C57.0877 284.881 54.5677 287.713 51.9757 289.921C49.4317 292.177 46.9837 293.305 44.6317 293.305ZM98.1176 288.913C96.2456 288.913 94.8536 288.313 93.9416 287.113C93.0296 285.961 92.5736 284.545 92.5736 282.865C92.5736 281.761 92.7656 280.369 93.1496 278.689C93.5816 277.009 94.1336 275.257 94.8056 273.433C95.4776 271.561 96.2456 269.809 97.1096 268.177C98.0216 266.545 98.9816 265.225 99.9896 264.217C100.998 263.161 101.982 262.633 102.942 262.633C103.374 262.633 103.734 262.777 104.022 263.065C104.358 263.305 104.526 263.689 104.526 264.217C104.526 264.793 104.142 265.729 103.374 267.025C102.654 268.321 101.79 269.809 100.782 271.489C99.7736 273.169 98.8856 274.945 98.1176 276.817C97.3976 278.641 97.0376 280.393 97.0376 282.073C97.0376 283.801 97.3256 284.953 97.9016 285.529C98.4776 286.105 99.3656 286.393 100.566 286.393C102.198 286.393 103.926 285.577 105.75 283.945C107.622 282.313 109.59 279.457 111.654 275.377L112.302 276.097C110.91 280.225 108.894 283.393 106.254 285.601C103.662 287.809 100.95 288.913 98.1176 288.913ZM106.758 255.937C105.99 255.937 105.294 255.745 104.67 255.361C104.094 254.977 103.806 254.377 103.806 253.561C103.806 252.553 104.382 251.689 105.534 250.969C106.734 250.201 107.91 249.817 109.062 249.817C109.782 249.817 110.358 249.985 110.79 250.321C111.222 250.657 111.438 251.233 111.438 252.049C111.438 252.961 110.934 253.849 109.926 254.713C108.966 255.529 107.91 255.937 106.758 255.937ZM116.421 290.353C114.357 290.353 112.773 289.753 111.669 288.553C110.565 287.353 110.013 285.577 110.013 283.225C110.013 281.113 110.397 278.521 111.165 275.449C111.981 272.329 112.989 269.137 114.189 265.873C113.709 265.777 113.253 265.705 112.821 265.657C112.389 265.561 111.981 265.441 111.597 265.297V264.001C111.981 264.049 112.437 264.097 112.965 264.145C113.493 264.193 114.093 264.241 114.765 264.289C115.773 261.697 116.853 259.201 118.005 256.801C119.157 254.353 120.285 252.193 121.389 250.321C122.541 248.401 123.621 246.889 124.629 245.785C125.685 244.633 126.573 244.057 127.293 244.057C127.677 244.057 128.013 244.201 128.301 244.489C128.637 244.729 128.805 245.113 128.805 245.641C128.805 246.457 128.301 247.801 127.293 249.673C126.285 251.497 125.037 253.681 123.549 256.225C122.061 258.769 120.621 261.529 119.229 264.505C119.661 264.505 120.093 264.505 120.525 264.505C121.005 264.505 121.461 264.505 121.893 264.505C123.477 264.505 125.133 264.481 126.861 264.433C128.637 264.385 130.413 264.265 132.189 264.073V265.369C129.549 265.657 127.173 265.873 125.061 266.017C122.997 266.161 121.149 266.233 119.517 266.233C119.325 266.233 119.133 266.233 118.941 266.233C118.797 266.233 118.629 266.233 118.437 266.233C117.333 268.777 116.397 271.393 115.629 274.081C114.861 276.769 114.477 279.385 114.477 281.929C114.477 283.993 114.789 285.481 115.413 286.393C116.037 287.257 117.069 287.689 118.509 287.689C121.005 287.689 123.453 286.585 125.853 284.377C128.253 282.169 130.365 279.169 132.189 275.377L133.125 276.097C131.973 278.785 130.509 281.209 128.733 283.369C127.005 285.529 125.085 287.233 122.973 288.481C120.861 289.729 118.677 290.353 116.421 290.353ZM138.536 291.073C136.232 291.073 134.312 290.305 132.776 288.769C131.24 287.233 130.472 284.929 130.472 281.857C130.472 279.457 130.928 277.129 131.84 274.873C132.8 272.569 134.048 270.505 135.584 268.681C137.12 266.857 138.824 265.417 140.696 264.361C142.568 263.257 144.416 262.705 146.24 262.705C148.208 262.705 149.552 263.281 150.272 264.433C150.992 265.585 151.352 266.785 151.352 268.033C151.352 269.425 151.016 270.649 150.344 271.705C149.72 272.761 148.856 273.289 147.752 273.289C146.936 273.289 146.24 272.929 145.664 272.209C146.384 271.825 147.008 271.057 147.536 269.905C148.064 268.705 148.328 267.577 148.328 266.521C148.328 265.945 148.208 265.513 147.968 265.225C147.776 264.889 147.368 264.721 146.744 264.721C145.448 264.721 144.104 265.297 142.712 266.449C141.368 267.601 140.096 269.089 138.896 270.913C137.744 272.737 136.784 274.657 136.016 276.673C135.296 278.689 134.936 280.585 134.936 282.361C134.936 283.849 135.296 285.217 136.016 286.465C136.736 287.713 138.128 288.337 140.192 288.337C142.112 288.337 144.032 287.809 145.952 286.753C147.92 285.697 149.744 284.185 151.424 282.217C153.104 280.249 154.448 277.945 155.456 275.305L156.392 276.025C155.288 278.905 153.776 281.497 151.856 283.801C149.936 286.057 147.824 287.833 145.52 289.129C143.216 290.425 140.888 291.073 138.536 291.073ZM157.489 289.777C156.577 289.777 155.857 289.009 155.329 287.473C154.801 285.937 154.537 284.209 154.537 282.289C154.537 279.985 154.921 277.249 155.689 274.081C156.457 270.913 157.465 267.577 158.713 264.073C159.961 260.569 161.353 257.137 162.889 253.777C164.473 250.417 166.081 247.369 167.713 244.633C169.345 241.897 170.881 239.713 172.321 238.081C173.761 236.449 175.009 235.633 176.065 235.633C176.929 235.633 177.529 236.161 177.865 237.217C178.249 238.225 178.441 239.209 178.441 240.169C178.441 241.513 178.129 243.145 177.505 245.065C176.929 246.985 176.113 249.049 175.057 251.257C174.001 253.417 172.777 255.553 171.385 257.665C169.993 259.777 168.481 261.721 166.849 263.497C165.217 265.225 163.561 266.593 161.881 267.601C161.305 268.993 160.801 270.553 160.369 272.281C159.985 274.009 159.697 275.713 159.505 277.393C159.313 279.025 159.217 280.489 159.217 281.785C159.217 282.313 159.217 282.769 159.217 283.153C159.265 283.537 159.313 283.897 159.361 284.233C160.033 282.265 160.753 280.369 161.521 278.545C162.337 276.673 163.201 274.969 164.113 273.433C165.025 271.849 165.985 270.481 166.993 269.329C168.049 268.129 169.153 267.217 170.305 266.593C171.457 265.921 172.681 265.585 173.977 265.585C175.321 265.585 176.377 265.921 177.145 266.593C177.961 267.217 178.537 268.033 178.873 269.041C179.257 270.001 179.449 271.009 179.449 272.065C179.449 273.553 179.185 274.993 178.657 276.385C178.177 277.777 177.673 279.121 177.145 280.417C176.617 281.713 176.353 282.961 176.353 284.161C176.353 285.121 176.545 285.817 176.929 286.249C177.361 286.681 177.889 286.897 178.513 286.897C179.617 286.897 180.841 286.369 182.185 285.313C183.577 284.257 184.945 282.865 186.289 281.137C187.633 279.361 188.785 277.441 189.745 275.377L190.681 276.241C189.673 278.593 188.449 280.729 187.009 282.649C185.569 284.521 183.985 286.009 182.257 287.113C180.529 288.217 178.729 288.769 176.857 288.769C175.225 288.769 173.977 288.337 173.113 287.473C172.297 286.609 171.889 285.529 171.889 284.233C171.889 283.225 172.081 282.097 172.465 280.849C172.849 279.601 173.209 278.329 173.545 277.033C173.929 275.737 174.121 274.513 174.121 273.361C174.121 272.113 173.857 271.225 173.329 270.697C172.801 270.169 172.153 269.905 171.385 269.905C170.185 269.905 169.105 270.385 168.145 271.345C167.185 272.305 166.297 273.553 165.481 275.089C164.713 276.577 163.969 278.161 163.249 279.841C162.577 281.521 161.929 283.129 161.305 284.665C160.681 286.153 160.057 287.377 159.433 288.337C158.809 289.297 158.161 289.777 157.489 289.777ZM162.817 264.793C164.161 263.737 165.457 262.393 166.705 260.761C168.001 259.129 169.201 257.401 170.305 255.577C171.409 253.705 172.393 251.881 173.257 250.105C174.121 248.329 174.793 246.721 175.273 245.281C175.753 243.841 175.993 242.761 175.993 242.041C175.993 241.801 175.969 241.657 175.921 241.609C175.873 241.513 175.801 241.465 175.705 241.465C175.369 241.465 174.673 242.137 173.617 243.481C172.609 244.777 171.433 246.529 170.089 248.737C168.745 250.945 167.425 253.441 166.129 256.225C164.833 259.009 163.729 261.865 162.817 264.793ZM213.315 293.305C212.115 293.305 210.987 292.969 209.931 292.297C208.875 291.625 208.347 290.761 208.347 289.705C208.347 289.177 208.467 288.529 208.707 287.761C208.947 287.041 209.163 286.369 209.355 285.745C210.891 281.041 212.331 276.649 213.675 272.569C215.019 268.489 216.363 264.529 217.707 260.689C219.051 256.849 220.467 253.009 221.955 249.169C223.491 245.329 225.195 241.321 227.067 237.145C225.243 237.481 223.611 237.985 222.171 238.657C220.779 239.281 219.651 239.857 218.787 240.385C217.923 240.865 217.347 241.105 217.059 241.105C216.867 241.105 216.579 241.009 216.195 240.817C215.859 240.577 215.547 240.313 215.259 240.025C214.971 239.689 214.827 239.401 214.827 239.161C216.075 238.633 217.539 238.057 219.219 237.433C220.947 236.809 222.795 236.281 224.763 235.849C226.731 235.417 228.723 235.201 230.739 235.201C232.851 235.201 234.987 235.489 237.147 236.065C239.355 236.641 241.371 237.529 243.195 238.729C245.019 239.881 246.483 241.321 247.587 243.049C248.691 244.777 249.243 246.793 249.243 249.097C249.243 251.593 248.691 253.753 247.587 255.577C246.483 257.353 245.019 258.865 243.195 260.113C241.371 261.313 239.403 262.297 237.291 263.065C235.179 263.785 233.067 264.361 230.955 264.793C228.891 265.177 227.043 265.441 225.411 265.585C223.779 265.681 222.579 265.729 221.811 265.729H221.091C219.651 270.673 218.259 275.545 216.915 280.345C215.619 285.145 214.419 289.465 213.315 293.305ZM221.379 264.577C224.019 264.433 226.683 264.001 229.371 263.281C232.107 262.561 234.603 261.529 236.859 260.185C239.115 258.793 240.939 257.089 242.331 255.073C243.723 253.009 244.419 250.609 244.419 247.873C244.419 245.281 243.795 243.169 242.547 241.537C241.347 239.905 239.739 238.705 237.723 237.937C235.755 237.121 233.643 236.713 231.387 236.713C229.611 240.217 227.883 244.417 226.203 249.313C224.523 254.209 222.915 259.297 221.379 264.577ZM245.628 289.345C243.564 289.345 242.1 288.697 241.236 287.401C240.372 286.153 239.94 284.617 239.94 282.793C239.94 281.305 240.18 279.769 240.66 278.185C241.14 276.601 241.764 275.113 242.532 273.721C243.348 272.329 244.236 271.201 245.196 270.337C246.204 269.473 247.212 269.041 248.22 269.041C248.46 269.041 248.7 269.089 248.94 269.185C249.228 269.233 249.492 269.305 249.732 269.401C249.3 269.785 248.772 270.505 248.148 271.561C247.572 272.569 247.02 273.745 246.492 275.089C245.964 276.385 245.508 277.681 245.124 278.977C244.788 280.273 244.62 281.377 244.62 282.289C244.62 283.729 244.86 284.785 245.34 285.457C245.82 286.081 246.444 286.393 247.212 286.393C248.22 286.393 249.42 285.865 250.812 284.809C252.204 283.705 253.572 282.313 254.916 280.633C253.572 279.529 252.516 278.089 251.748 276.313C251.028 274.489 250.668 272.641 250.668 270.769C250.668 269.185 250.932 267.697 251.46 266.305C252.036 264.913 252.852 263.809 253.908 262.993C254.964 262.129 256.236 261.697 257.724 261.697C259.692 261.697 261.012 262.225 261.684 263.281C262.356 264.337 262.692 265.657 262.692 267.241C262.692 269.113 262.236 271.201 261.324 273.505C260.412 275.761 259.26 277.945 257.868 280.057C258.732 280.537 259.644 280.777 260.604 280.777C261.372 280.777 262.236 280.633 263.196 280.345C264.156 280.009 265.092 279.457 266.004 278.689C266.964 277.921 267.732 276.889 268.308 275.593L269.172 276.313C268.212 278.569 266.844 280.177 265.068 281.137C263.34 282.049 261.684 282.505 260.1 282.505C259.476 282.505 258.876 282.457 258.3 282.361C257.724 282.217 257.172 282.025 256.644 281.785C255.012 283.945 253.212 285.745 251.244 287.185C249.324 288.625 247.452 289.345 245.628 289.345ZM256.212 278.761C257.412 276.985 258.396 275.137 259.164 273.217C259.98 271.249 260.388 269.401 260.388 267.673C260.388 266.281 260.172 265.273 259.74 264.649C259.356 263.977 258.852 263.641 258.228 263.641C257.268 263.641 256.284 264.337 255.276 265.729C254.268 267.121 253.764 268.873 253.764 270.985C253.764 272.377 253.956 273.793 254.34 275.233C254.772 276.625 255.396 277.801 256.212 278.761ZM273.077 290.353C271.013 290.353 269.429 289.753 268.325 288.553C267.221 287.353 266.669 285.577 266.669 283.225C266.669 281.113 267.053 278.521 267.821 275.449C268.637 272.329 269.645 269.137 270.845 265.873C270.365 265.777 269.909 265.705 269.477 265.657C269.045 265.561 268.637 265.441 268.253 265.297V264.001C268.637 264.049 269.093 264.097 269.621 264.145C270.149 264.193 270.749 264.241 271.421 264.289C272.429 261.697 273.509 259.201 274.661 256.801C275.813 254.353 276.941 252.193 278.045 250.321C279.197 248.401 280.277 246.889 281.285 245.785C282.341 244.633 283.229 244.057 283.949 244.057C284.333 244.057 284.669 244.201 284.957 244.489C285.293 244.729 285.461 245.113 285.461 245.641C285.461 246.457 284.957 247.801 283.949 249.673C282.941 251.497 281.693 253.681 280.205 256.225C278.717 258.769 277.277 261.529 275.885 264.505C276.317 264.505 276.749 264.505 277.181 264.505C277.661 264.505 278.117 264.505 278.549 264.505C280.133 264.505 281.789 264.481 283.517 264.433C285.293 264.385 287.069 264.265 288.845 264.073V265.369C286.205 265.657 283.829 265.873 281.717 266.017C279.653 266.161 277.805 266.233 276.173 266.233C275.981 266.233 275.789 266.233 275.597 266.233C275.453 266.233 275.285 266.233 275.093 266.233C273.989 268.777 273.053 271.393 272.285 274.081C271.517 276.769 271.133 279.385 271.133 281.929C271.133 283.993 271.445 285.481 272.069 286.393C272.693 287.257 273.725 287.689 275.165 287.689C277.661 287.689 280.109 286.585 282.509 284.377C284.909 282.169 287.021 279.169 288.845 275.377L289.781 276.097C288.629 278.785 287.165 281.209 285.389 283.369C283.661 285.529 281.741 287.233 279.629 288.481C277.517 289.729 275.333 290.353 273.077 290.353Z" fill="white"/>
</svg>
