<svg width="325" height="70" viewBox="0 0 325 70" fill="none" xmlns="http://www.w3.org/2000/svg">
<path d="M14.9567 0C14.9567 0 11.9856 2.03654 11.7837 3.63173C11.5817 5.26587 14.3221 6.40673 14.0337 8.02789C13.8462 9.09952 11.6394 10.2462 11.6394 10.2462C11.6394 10.2462 17.2212 9.76154 17.7404 7.60673C18.1587 5.90192 14.8846 5.21106 14.4231 3.51779C14.1202 2.3726 14.9567 0 14.9567 0ZM45.8798 0.705289C45.8798 0.705289 42.3029 2.66394 42.2885 4.37596C42.274 5.42019 44.3654 5.62644 44.4231 6.66923C44.4952 7.90385 42.2164 9.65192 42.2164 9.65192C42.2164 9.65192 47.0625 9.1024 47.7115 7.20433C48.101 6.08365 46.3558 5.2125 46.0385 4.07019C45.7356 2.98846 45.8798 0.705289 45.8798 0.705289ZM30.4615 0.742788C30.4615 0.742788 26.5817 2.72596 26.8702 4.41346C27.0721 5.55721 29.8413 4.79135 30 5.94231C30.2452 7.81875 25.7308 9.68942 25.7308 9.68942C25.7308 9.68942 33.8798 9.48173 34.2115 6.4774C34.3702 5.0524 31.3269 5.35385 30.6202 4.10769C30.0577 3.13125 30.4615 0.742788 30.4615 0.742788ZM0 12.8178V15.4139H60V12.8178H0ZM2.30769 18.1543C0.219231 30.688 4.74519 38.0726 10.7596 42.4139C10.2404 38.837 8.72596 35.3322 5.70288 32.0005C11.4663 33.5149 15.9952 39.0389 18.0144 44.5774C18.3462 41.8659 18.3462 40.6111 20.8269 38.2024C20.3798 41.7793 22.4423 42.0245 23.8846 41.5774C27.5337 40.438 29.0192 35.8803 25.4135 30.1976C32.2788 33.4716 32.3798 37.1784 33.5337 42.2697C33.1875 37.4813 37.0385 35.563 39.8365 37.3659C33.3317 40.6399 38.6539 43.4524 40.8317 44.1447C46.601 45.9909 50.9279 37.4668 53.4087 31.0197C54.0865 33.8755 53.524 36.7457 52.4712 39.6014C56.7404 35.087 59.3798 28.3082 57.6923 18.1543H2.30769ZM28.8894 43.4236L3.89423 57.8034C4.28365 60.4572 5.19231 62.7649 6.60577 64.7986L19.875 58.438L8.52404 67.0774C9.01442 67.5678 9.54808 68.0293 10.1106 68.4764L20.8846 62.2889C20.8846 62.188 20.8702 62.0726 20.8702 61.9716C20.8702 56.6063 25.2692 52.2216 30.649 52.2216C32.1779 52.2216 33.6202 52.5678 34.9038 53.188C34.5577 51.2553 33.851 49.2793 32.7692 47.5341L19.0817 53.3178L30.9808 45.1687C30.3462 44.5197 29.6538 43.9284 28.8894 43.4236ZM37.3846 51.7313C37.6154 52.7697 37.7596 53.8082 37.8173 54.8178L37.8462 55.3803C39.4471 57.1111 40.4279 59.4332 40.4279 61.9716C40.4279 63.0966 40.2404 64.1784 39.8798 65.1736L53.0625 68.6928C53.726 67.7841 54.3029 66.8466 54.7644 65.8947L45.6635 62.3322L55.774 63.3274C55.9039 62.8947 56.0048 62.4764 56.0913 62.0438L42.0865 57.0966L56.3942 59.3322C56.4231 58.4957 56.3798 57.6447 56.2789 56.7793L37.3846 51.7313ZM30.649 54.9188C26.726 54.9188 23.5673 58.063 23.5673 61.9716C23.5673 65.8803 26.726 69.0245 30.649 69.0245C34.5865 69.0245 37.7452 65.8803 37.7452 61.9716C37.7452 58.063 34.5865 54.9188 30.649 54.9188ZM29.9423 56.6207C36.2596 56.6207 38.3654 66.9476 29.9423 66.9476C33.7788 63.6159 34.2404 60.1832 29.9423 56.6207ZM29.9712 58.0341C26.8558 60.6159 27.1875 63.1111 29.9712 65.5341C23.8558 65.5341 25.3846 58.0341 29.9712 58.0341Z" fill="#95BD52"/>
<path d="M88.4 50.9922C88.0267 50.9922 87.56 50.8989 87 50.7122C86.4667 50.5522 85.9867 50.2455 85.56 49.7922C85.16 49.3389 84.96 48.6722 84.96 47.7922C84.96 47.0189 85.12 46.0055 85.44 44.7522C85.7867 43.4989 86.2133 42.0989 86.72 40.5522C87.2267 38.9789 87.7333 37.3389 88.24 35.6322C88.7467 33.8989 89.16 32.1655 89.48 30.4322C89.8267 28.6989 90 27.0322 90 25.4322C90 24.4455 89.96 23.5255 89.88 22.6722C89.8267 21.8189 89.6267 21.1389 89.28 20.6322C88.96 20.0989 88.4 19.8322 87.6 19.8322C86.8533 19.8322 86.2133 20.0589 85.68 20.5122C85.1733 20.9389 84.7467 21.4989 84.4 22.1922C84.08 22.8855 83.84 23.6189 83.68 24.3922C83.5467 25.1655 83.48 25.8855 83.48 26.5522C83.48 26.9789 83.5067 27.3789 83.56 27.7522C83.64 28.0989 83.7333 28.4189 83.84 28.7122C82.8 28.7122 82.0667 28.4322 81.64 27.8722C81.2133 27.2855 81 26.6055 81 25.8322C81 25.0055 81.1867 24.1789 81.56 23.3522C81.96 22.5255 82.4933 21.7655 83.16 21.0722C83.8533 20.3522 84.64 19.7789 85.52 19.3522C86.4 18.9255 87.3333 18.7122 88.32 18.7122C89.9733 18.7122 91.2 19.3655 92 20.6722C92.8267 21.9522 93.24 23.6722 93.24 25.8322C93.24 27.3789 93.0667 29.0055 92.72 30.7122C92.3733 32.3922 91.9467 34.0722 91.44 35.7522C90.9333 37.4322 90.4133 39.0455 89.88 40.5922C89.3733 42.1389 88.9467 43.5655 88.6 44.8722C88.2533 46.1789 88.08 47.2855 88.08 48.1922C88.08 48.6455 88.1467 49.0189 88.28 49.3122C88.44 49.6055 88.7467 49.7522 89.2 49.7522C89.9467 49.7522 90.8133 49.3655 91.8 48.5922C92.7867 47.8455 93.8 46.8189 94.84 45.5122C95.9067 44.1789 96.9333 42.6855 97.92 41.0322C98.9333 39.3789 99.84 37.6589 100.64 35.8722C101.44 34.0589 102.08 32.2855 102.56 30.5522C103.04 28.8189 103.28 27.2189 103.28 25.7522C103.28 24.4189 103.08 23.4455 102.68 22.8322C102.28 22.1922 101.747 21.7789 101.08 21.5922C101.453 20.9522 101.84 20.4855 102.24 20.1922C102.667 19.8989 103.053 19.7522 103.4 19.7522C103.96 19.7522 104.507 20.1122 105.04 20.8322C105.573 21.5522 105.84 22.6722 105.84 24.1922C105.84 25.6589 105.56 27.3255 105 29.1922C104.467 31.0589 103.733 33.0055 102.8 35.0322C101.867 37.0322 100.8 38.9789 99.6 40.8722C98.4 42.7655 97.1467 44.4722 95.84 45.9922C94.5333 47.5122 93.24 48.7255 91.96 49.6322C90.68 50.5389 89.4933 50.9922 88.4 50.9922ZM108.422 49.2722C106.795 49.2722 105.568 48.8189 104.742 47.9122C103.942 47.0322 103.542 45.9389 103.542 44.6322C103.542 43.4322 103.835 42.1655 104.422 40.8322C105.035 39.4989 105.835 38.2455 106.822 37.0722C107.835 35.8989 108.942 34.9522 110.142 34.2322C111.342 33.4855 112.528 33.1122 113.702 33.1122C114.315 33.1122 114.875 33.2722 115.382 33.5922C115.915 33.9122 116.182 34.5655 116.182 35.5522C116.182 36.5655 115.875 37.5255 115.262 38.4322C114.675 39.3122 113.888 40.0989 112.902 40.7922C111.942 41.4855 110.875 42.0589 109.702 42.5122C108.555 42.9389 107.408 43.2055 106.262 43.3122C106.208 43.5789 106.168 43.8322 106.142 44.0722C106.115 44.3122 106.102 44.5389 106.102 44.7522C106.102 45.1522 106.142 45.5522 106.222 45.9522C106.328 46.3522 106.502 46.7255 106.742 47.0722C106.982 47.3922 107.302 47.6455 107.702 47.8322C108.128 48.0189 108.648 48.1122 109.262 48.1122C110.408 48.1122 111.542 47.7922 112.662 47.1522C113.782 46.4855 114.822 45.6189 115.782 44.5522C116.742 43.4855 117.555 42.3122 118.222 41.0322L118.702 41.3922C117.982 42.9922 117.062 44.3789 115.942 45.5522C114.848 46.7255 113.648 47.6322 112.342 48.2722C111.062 48.9389 109.755 49.2722 108.422 49.2722ZM106.462 42.5522C107.182 42.3122 107.995 41.9655 108.902 41.5122C109.808 41.0322 110.675 40.4722 111.502 39.8322C112.355 39.1922 113.048 38.4855 113.582 37.7122C114.142 36.9389 114.422 36.1255 114.422 35.2722C114.422 34.9789 114.368 34.7522 114.262 34.5922C114.155 34.4322 113.928 34.3522 113.582 34.3522C112.942 34.3522 112.262 34.6055 111.542 35.1122C110.822 35.5922 110.128 36.2322 109.462 37.0322C108.795 37.8322 108.195 38.7122 107.662 39.6722C107.128 40.6322 106.728 41.5922 106.462 42.5522ZM118.942 58.7122C118.355 58.7122 117.822 58.5255 117.342 58.1522C116.862 57.8055 116.622 57.2189 116.622 56.3922C116.622 55.5922 116.875 54.8455 117.382 54.1522C117.862 53.4855 118.489 52.8589 119.262 52.2722C120.035 51.7122 120.875 51.1922 121.782 50.7122C122.715 50.2322 123.595 49.7789 124.422 49.3522C124.795 48.4189 125.142 47.4189 125.462 46.3522C125.809 45.2589 126.142 44.0589 126.462 42.7522C125.449 44.2189 124.382 45.4455 123.262 46.4322C122.169 47.3922 121.062 47.8722 119.942 47.8722C118.982 47.8722 118.235 47.5122 117.702 46.7922C117.195 46.0722 116.942 45.1389 116.942 43.9922C116.942 42.6055 117.275 41.2855 117.942 40.0322C118.635 38.7789 119.529 37.6722 120.622 36.7122C121.715 35.7522 122.875 35.0055 124.102 34.4722C125.329 33.9122 126.475 33.6322 127.542 33.6322C128.315 33.6322 128.862 33.7655 129.182 34.0322C129.529 34.2722 129.702 34.5655 129.702 34.9122C129.702 35.1522 129.635 35.3389 129.502 35.4722C129.369 35.6055 129.275 35.6855 129.222 35.7122C129.089 35.4989 128.889 35.3522 128.622 35.2722C128.355 35.1655 128.022 35.1122 127.622 35.1122C126.582 35.1122 125.569 35.4189 124.582 36.0322C123.622 36.6455 122.769 37.4322 122.022 38.3922C121.275 39.3522 120.675 40.3522 120.222 41.3922C119.795 42.4055 119.582 43.3389 119.582 44.1922C119.582 44.8322 119.702 45.3255 119.942 45.6722C120.209 45.9922 120.555 46.1522 120.982 46.1522C121.755 46.1522 122.675 45.6455 123.742 44.6322C124.835 43.5922 125.889 42.3389 126.902 40.8722C126.982 40.4989 127.049 40.1655 127.102 39.8722C127.182 39.5789 127.275 39.2055 127.382 38.7522C127.462 38.3789 127.649 37.9522 127.942 37.4722C128.262 36.9655 128.755 36.7122 129.422 36.7122C129.555 36.7122 129.689 36.7255 129.822 36.7522C129.955 36.7522 130.102 36.7789 130.262 36.8322C130.262 37.2589 130.129 38.0455 129.862 39.1922C129.622 40.3122 129.262 41.6322 128.782 43.1522C128.329 44.6455 127.795 46.1922 127.182 47.7922C128.062 47.3655 128.915 46.8189 129.742 46.1522C130.595 45.4855 131.369 44.7255 132.062 43.8722C132.755 42.9922 133.302 42.0455 133.702 41.0322L134.222 41.4322C133.822 42.6322 133.182 43.7255 132.302 44.7122C131.422 45.6989 130.475 46.5522 129.462 47.2722C128.475 47.9922 127.569 48.5522 126.742 48.9522C125.995 50.7389 125.209 52.3655 124.382 53.8322C123.555 55.3255 122.689 56.5122 121.782 57.3922C120.902 58.2722 119.955 58.7122 118.942 58.7122ZM118.822 57.4322C119.355 57.4322 120.075 56.8989 120.982 55.8322C121.915 54.7922 122.915 52.9922 123.982 50.4322C122.915 50.9655 121.915 51.5122 120.982 52.0722C120.075 52.6589 119.329 53.2722 118.742 53.9122C118.155 54.5522 117.862 55.2589 117.862 56.0322C117.862 56.4589 117.955 56.7922 118.142 57.0322C118.329 57.2989 118.555 57.4322 118.822 57.4322ZM134.889 49.3922C134.062 49.3922 133.369 49.1122 132.809 48.5522C132.222 48.0189 131.929 47.1922 131.929 46.0722C131.929 45.1122 132.142 44.0855 132.569 42.9922C132.995 41.8722 133.582 40.7789 134.329 39.7122C135.075 38.6189 135.915 37.6322 136.849 36.7522C137.809 35.8455 138.809 35.1255 139.849 34.5922C140.915 34.0589 141.969 33.7922 143.009 33.7922C144.049 33.7922 144.915 34.0722 145.609 34.6322C146.302 35.1655 146.649 35.8855 146.649 36.7922C146.649 37.4589 146.462 37.9122 146.089 38.1522C145.742 38.3922 145.275 38.5122 144.689 38.5122C144.742 38.2989 144.782 38.0722 144.809 37.8322C144.862 37.5655 144.889 37.3255 144.889 37.1122C144.889 36.4989 144.742 35.9789 144.449 35.5522C144.155 35.0989 143.649 34.8722 142.929 34.8722C142.182 34.8722 141.422 35.1389 140.649 35.6722C139.875 36.1789 139.129 36.8722 138.409 37.7522C137.689 38.6055 137.049 39.5389 136.489 40.5522C135.929 41.5655 135.489 42.5655 135.169 43.5522C134.849 44.5389 134.689 45.4189 134.689 46.1922C134.689 47.2322 135.049 47.7522 135.769 47.7522C136.382 47.7522 137.049 47.4722 137.769 46.9122C138.489 46.3255 139.222 45.5922 139.969 44.7122C140.742 43.8055 141.475 42.8722 142.169 41.9122C142.862 40.9522 143.475 40.0722 144.009 39.2722C144.115 39.1122 144.182 39.0322 144.209 39.0322C144.369 39.0589 144.569 39.1122 144.809 39.1922C145.075 39.2722 145.302 39.3789 145.489 39.5122C145.675 39.6455 145.769 39.8189 145.769 40.0322C145.769 40.2722 145.649 40.6055 145.409 41.0322C145.169 41.4322 144.902 41.8989 144.609 42.4322C144.315 42.9655 144.049 43.5122 143.809 44.0722C143.569 44.6055 143.449 45.1122 143.449 45.5922C143.449 45.9922 143.555 46.3922 143.769 46.7922C143.982 47.1655 144.329 47.3522 144.809 47.3522C145.529 47.3522 146.475 46.8322 147.649 45.7922C148.822 44.7255 150.009 43.1389 151.209 41.0322L151.609 41.4322C151.049 42.8722 150.329 44.1389 149.449 45.2322C148.569 46.3255 147.622 47.1789 146.609 47.7922C145.622 48.4055 144.649 48.7122 143.689 48.7122C142.702 48.7122 141.969 48.4189 141.489 47.8322C141.035 47.2455 140.809 46.6055 140.809 45.9122C140.809 45.7522 140.822 45.5789 140.849 45.3922C140.875 45.1789 140.902 44.9655 140.929 44.7522C139.782 46.2989 138.729 47.4589 137.769 48.2322C136.835 49.0055 135.875 49.3922 134.889 49.3922ZM163.311 48.3122C162.377 48.3122 161.671 48.0722 161.191 47.5922C160.737 47.1122 160.511 46.4989 160.511 45.7522C160.511 45.1922 160.604 44.6055 160.791 43.9922C161.004 43.3789 161.204 42.7522 161.391 42.1122C161.577 41.4455 161.671 40.8055 161.671 40.1922C161.671 39.4455 161.511 38.9389 161.191 38.6722C160.897 38.3789 160.524 38.2322 160.071 38.2322C159.244 38.2322 158.404 38.5789 157.551 39.2722C156.697 39.9389 155.871 40.8055 155.071 41.8722C154.271 42.9122 153.524 43.9922 152.831 45.1122C152.137 46.2322 151.524 47.2322 150.991 48.1122C150.564 48.1122 150.164 48.0322 149.791 47.8722C149.391 47.7389 149.084 47.5255 148.871 47.2322C148.871 47.0989 149.017 46.6855 149.311 45.9922C149.577 45.2989 149.897 44.4455 150.271 43.4322C150.644 42.4189 150.977 41.3789 151.271 40.3122C151.564 39.2455 151.711 38.2722 151.711 37.3922C151.871 37.2055 152.124 37.0189 152.471 36.8322C152.817 36.6455 153.177 36.5522 153.551 36.5522C154.271 36.5522 154.631 36.8989 154.631 37.5922C154.631 38.0189 154.511 38.7389 154.271 39.7522C154.031 40.7389 153.724 41.7789 153.351 42.8722C154.071 41.7789 154.871 40.6989 155.751 39.6322C156.657 38.5389 157.617 37.6322 158.631 36.9122C159.644 36.1922 160.657 35.8322 161.671 35.8322C162.711 35.8322 163.457 36.2055 163.911 36.9522C164.391 37.6989 164.631 38.5255 164.631 39.4322C164.631 40.2589 164.497 41.0322 164.231 41.7522C163.964 42.4455 163.684 43.1255 163.391 43.7922C163.124 44.4322 162.991 45.0855 162.991 45.7522C162.991 46.3122 163.097 46.7122 163.311 46.9522C163.551 47.1655 163.844 47.2722 164.191 47.2722C164.857 47.2722 165.524 46.9655 166.191 46.3522C166.857 45.7122 167.497 44.9122 168.111 43.9522C168.751 42.9922 169.311 42.0189 169.791 41.0322L170.231 41.5522C169.671 42.8589 169.044 44.0189 168.351 45.0322C167.657 46.0455 166.897 46.8455 166.071 47.4322C165.244 48.0189 164.324 48.3122 163.311 48.3122ZM187.814 50.9922C187.521 50.9922 187.174 50.9389 186.774 50.8322C186.401 50.7522 186.027 50.5922 185.654 50.3522C185.281 50.1389 184.974 49.8189 184.734 49.3922C184.494 48.9922 184.374 48.4589 184.374 47.7922C184.374 46.8589 184.601 45.6322 185.054 44.1122C185.507 42.5655 186.027 40.8589 186.614 38.9922C187.067 37.5522 187.507 36.0589 187.934 34.5122C188.361 32.9655 188.707 31.4189 188.974 29.8722C189.267 28.3255 189.414 26.8455 189.414 25.4322C189.414 24.4455 189.374 23.5255 189.294 22.6722C189.241 21.8189 189.041 21.1389 188.694 20.6322C188.374 20.0989 187.814 19.8322 187.014 19.8322C186.267 19.8322 185.627 20.0589 185.094 20.5122C184.587 20.9389 184.161 21.4989 183.814 22.1922C183.494 22.8855 183.254 23.6189 183.094 24.3922C182.961 25.1655 182.894 25.8855 182.894 26.5522C182.894 27.4322 183.014 28.1522 183.254 28.7122C182.214 28.7122 181.481 28.4322 181.054 27.8722C180.627 27.2855 180.414 26.6055 180.414 25.8322C180.414 25.0055 180.601 24.1789 180.974 23.3522C181.374 22.5255 181.907 21.7655 182.574 21.0722C183.267 20.3522 184.054 19.7789 184.934 19.3522C185.814 18.9255 186.747 18.7122 187.734 18.7122C189.387 18.7122 190.614 19.3655 191.414 20.6722C192.241 21.9522 192.654 23.6722 192.654 25.8322C192.654 27.7789 192.374 29.8455 191.814 32.0322C191.281 34.1922 190.681 36.2989 190.014 38.3522C189.587 39.6855 189.174 40.9655 188.774 42.1922C188.401 43.3922 188.094 44.4989 187.854 45.5122C187.614 46.5255 187.494 47.4189 187.494 48.1922C187.494 48.6989 187.574 49.0855 187.734 49.3522C187.894 49.6189 188.214 49.7522 188.694 49.7522C189.361 49.7522 190.094 49.4322 190.894 48.7922C191.721 48.1789 192.547 47.3389 193.374 46.2722C194.227 45.2055 195.041 44.0322 195.814 42.7522C196.614 41.4455 197.334 40.1122 197.974 38.7522C198.641 37.3922 199.187 36.0989 199.614 34.8722C200.067 33.6455 200.347 32.5922 200.454 31.7122C201.334 31.7122 201.947 31.9389 202.294 32.3922C202.667 32.8455 202.854 33.2722 202.854 33.6722C202.854 34.0989 202.681 34.7522 202.334 35.6322C201.987 36.5122 201.574 37.4989 201.094 38.5922C200.694 39.5522 200.281 40.5789 199.854 41.6722C199.454 42.7655 199.107 43.8589 198.814 44.9522C198.547 46.0455 198.414 47.0855 198.414 48.0722C198.414 48.5789 198.481 48.9789 198.614 49.2722C198.747 49.5922 199.054 49.7522 199.534 49.7522C200.281 49.7522 201.147 49.3655 202.134 48.5922C203.121 47.8455 204.134 46.8189 205.174 45.5122C206.241 44.1789 207.267 42.6855 208.254 41.0322C209.267 39.3789 210.174 37.6589 210.974 35.8722C211.774 34.0589 212.414 32.2855 212.894 30.5522C213.374 28.8189 213.614 27.2189 213.614 25.7522C213.614 24.4189 213.414 23.4455 213.014 22.8322C212.614 22.1922 212.081 21.7789 211.414 21.5922C211.787 20.9522 212.174 20.4855 212.574 20.1922C213.001 19.8989 213.387 19.7522 213.734 19.7522C214.294 19.7522 214.841 20.1122 215.374 20.8322C215.907 21.5522 216.174 22.6722 216.174 24.1922C216.174 25.6589 215.894 27.3255 215.334 29.1922C214.801 31.0589 214.067 33.0055 213.134 35.0322C212.201 37.0322 211.134 38.9789 209.934 40.8722C208.734 42.7655 207.481 44.4722 206.174 45.9922C204.867 47.5122 203.574 48.7255 202.294 49.6322C201.014 50.5389 199.827 50.9922 198.734 50.9922C198.227 50.9922 197.707 50.8855 197.174 50.6722C196.641 50.4589 196.187 50.1255 195.814 49.6722C195.467 49.2455 195.294 48.6855 195.294 47.9922C195.294 47.5922 195.361 47.0855 195.494 46.4722C195.654 45.8322 195.854 45.1389 196.094 44.3922C194.734 46.3122 193.334 47.8855 191.894 49.1122C190.481 50.3655 189.121 50.9922 187.814 50.9922ZM217.528 48.5522C216.488 48.5522 215.715 48.2189 215.208 47.5522C214.702 46.9122 214.448 46.1255 214.448 45.1922C214.448 44.5789 214.555 43.8055 214.768 42.8722C215.008 41.9389 215.315 40.9655 215.688 39.9522C216.062 38.9122 216.488 37.9389 216.968 37.0322C217.475 36.1255 218.008 35.3922 218.568 34.8322C219.128 34.2455 219.675 33.9522 220.208 33.9522C220.448 33.9522 220.648 34.0322 220.808 34.1922C220.995 34.3255 221.088 34.5389 221.088 34.8322C221.088 35.1522 220.875 35.6722 220.448 36.3922C220.048 37.1122 219.568 37.9389 219.008 38.8722C218.448 39.8055 217.955 40.7922 217.528 41.8322C217.128 42.8455 216.928 43.8189 216.928 44.7522C216.928 45.7122 217.088 46.3522 217.408 46.6722C217.728 46.9922 218.222 47.1522 218.888 47.1522C219.795 47.1522 220.755 46.6989 221.768 45.7922C222.808 44.8855 223.902 43.2989 225.048 41.0322L225.408 41.4322C224.635 43.7255 223.515 45.4855 222.048 46.7122C220.608 47.9389 219.102 48.5522 217.528 48.5522ZM222.328 30.2322C221.902 30.2322 221.515 30.1255 221.168 29.9122C220.848 29.6989 220.688 29.3655 220.688 28.9122C220.688 28.3522 221.008 27.8722 221.648 27.4722C222.315 27.0455 222.968 26.8322 223.608 26.8322C224.008 26.8322 224.328 26.9255 224.568 27.1122C224.808 27.2989 224.928 27.6189 224.928 28.0722C224.928 28.5789 224.648 29.0722 224.088 29.5522C223.555 30.0055 222.968 30.2322 222.328 30.2322ZM227.697 49.3522C226.55 49.3522 225.67 49.0189 225.057 48.3522C224.444 47.6855 224.137 46.6989 224.137 45.3922C224.137 44.2189 224.35 42.7789 224.777 41.0722C225.23 39.3389 225.79 37.5655 226.457 35.7522C226.19 35.6989 225.937 35.6589 225.697 35.6322C225.457 35.5789 225.23 35.5122 225.017 35.4322V34.7122C225.23 34.7389 225.484 34.7655 225.777 34.7922C226.07 34.8189 226.404 34.8455 226.777 34.8722C227.337 33.4322 227.937 32.0455 228.577 30.7122C229.217 29.3522 229.844 28.1522 230.457 27.1122C231.097 26.0455 231.697 25.2055 232.257 24.5922C232.844 23.9522 233.337 23.6322 233.737 23.6322C233.95 23.6322 234.137 23.7122 234.297 23.8722C234.484 24.0055 234.577 24.2189 234.577 24.5122C234.577 24.9655 234.297 25.7122 233.737 26.7522C233.177 27.7655 232.484 28.9789 231.657 30.3922C230.83 31.8055 230.03 33.3389 229.257 34.9922C229.497 34.9922 229.737 34.9922 229.977 34.9922C230.244 34.9922 230.497 34.9922 230.737 34.9922C231.617 34.9922 232.537 34.9789 233.497 34.9522C234.484 34.9255 235.47 34.8589 236.457 34.7522V35.4722C234.99 35.6322 233.67 35.7522 232.497 35.8322C231.35 35.9122 230.324 35.9522 229.417 35.9522C229.31 35.9522 229.204 35.9522 229.097 35.9522C229.017 35.9522 228.924 35.9522 228.817 35.9522C228.204 37.3655 227.684 38.8189 227.257 40.3122C226.83 41.8055 226.617 43.2589 226.617 44.6722C226.617 45.8189 226.79 46.6455 227.137 47.1522C227.484 47.6322 228.057 47.8722 228.857 47.8722C230.244 47.8722 231.604 47.2589 232.937 46.0322C234.27 44.8055 235.444 43.1389 236.457 41.0322L236.977 41.4322C236.337 42.9255 235.524 44.2722 234.537 45.4722C233.577 46.6722 232.51 47.6189 231.337 48.3122C230.164 49.0055 228.95 49.3522 227.697 49.3522ZM239.983 49.7522C238.703 49.7522 237.636 49.3255 236.783 48.4722C235.93 47.6189 235.503 46.3389 235.503 44.6322C235.503 43.2989 235.756 42.0055 236.263 40.7522C236.796 39.4722 237.49 38.3255 238.343 37.3122C239.196 36.2989 240.143 35.4989 241.183 34.9122C242.223 34.2989 243.25 33.9922 244.263 33.9922C245.356 33.9922 246.103 34.3122 246.503 34.9522C246.903 35.5922 247.103 36.2589 247.103 36.9522C247.103 37.7255 246.916 38.4055 246.543 38.9922C246.196 39.5789 245.716 39.8722 245.103 39.8722C244.65 39.8722 244.263 39.6722 243.943 39.2722C244.343 39.0589 244.69 38.6322 244.983 37.9922C245.276 37.3255 245.423 36.6989 245.423 36.1122C245.423 35.7922 245.356 35.5522 245.223 35.3922C245.116 35.2055 244.89 35.1122 244.543 35.1122C243.823 35.1122 243.076 35.4322 242.303 36.0722C241.556 36.7122 240.85 37.5389 240.183 38.5522C239.543 39.5655 239.01 40.6322 238.583 41.7522C238.183 42.8722 237.983 43.9255 237.983 44.9122C237.983 45.7389 238.183 46.4989 238.583 47.1922C238.983 47.8855 239.756 48.2322 240.903 48.2322C241.97 48.2322 243.036 47.9389 244.103 47.3522C245.196 46.7655 246.21 45.9255 247.143 44.8322C248.076 43.7389 248.823 42.4589 249.383 40.9922L249.903 41.3922C249.29 42.9922 248.45 44.4322 247.383 45.7122C246.316 46.9655 245.143 47.9522 243.863 48.6722C242.583 49.3922 241.29 49.7522 239.983 49.7522ZM250.513 49.0322C250.006 49.0322 249.606 48.6055 249.313 47.7522C249.019 46.8989 248.873 45.9389 248.873 44.8722C248.873 43.5922 249.086 42.0722 249.513 40.3122C249.939 38.5522 250.499 36.6989 251.193 34.7522C251.886 32.8055 252.659 30.8989 253.513 29.0322C254.393 27.1655 255.286 25.4722 256.193 23.9522C257.099 22.4322 257.953 21.2189 258.753 20.3122C259.553 19.4055 260.246 18.9522 260.833 18.9522C261.313 18.9522 261.646 19.2455 261.833 19.8322C262.046 20.3922 262.153 20.9389 262.153 21.4722C262.153 22.2189 261.979 23.1255 261.633 24.1922C261.313 25.2589 260.859 26.4055 260.273 27.6322C259.686 28.8322 259.006 30.0189 258.233 31.1922C257.459 32.3655 256.619 33.4455 255.713 34.4322C254.806 35.3922 253.886 36.1522 252.953 36.7122C252.633 37.4855 252.353 38.3522 252.113 39.3122C251.899 40.2722 251.739 41.2189 251.633 42.1522C251.526 43.0589 251.473 43.8722 251.473 44.5922C251.473 44.8855 251.473 45.1389 251.473 45.3522C251.499 45.5655 251.526 45.7655 251.553 45.9522C251.926 44.8589 252.326 43.8055 252.753 42.7922C253.206 41.7522 253.686 40.8055 254.193 39.9522C254.699 39.0722 255.233 38.3122 255.793 37.6722C256.379 37.0055 256.993 36.4989 257.633 36.1522C258.273 35.7789 258.953 35.5922 259.673 35.5922C260.419 35.5922 261.006 35.7789 261.433 36.1522C261.886 36.4989 262.206 36.9522 262.393 37.5122C262.606 38.0455 262.713 38.6055 262.713 39.1922C262.713 40.0189 262.566 40.8189 262.273 41.5922C262.006 42.3655 261.726 43.1122 261.433 43.8322C261.139 44.5522 260.993 45.2455 260.993 45.9122C260.993 46.4455 261.099 46.8322 261.313 47.0722C261.553 47.3122 261.846 47.4322 262.193 47.4322C262.806 47.4322 263.486 47.1389 264.233 46.5522C265.006 45.9655 265.766 45.1922 266.513 44.2322C267.259 43.2455 267.899 42.1789 268.433 41.0322L268.953 41.5122C268.393 42.8189 267.713 44.0055 266.913 45.0722C266.113 46.1122 265.233 46.9389 264.273 47.5522C263.313 48.1655 262.313 48.4722 261.273 48.4722C260.366 48.4722 259.673 48.2322 259.193 47.7522C258.739 47.2722 258.513 46.6722 258.513 45.9522C258.513 45.3922 258.619 44.7655 258.833 44.0722C259.046 43.3789 259.246 42.6722 259.433 41.9522C259.646 41.2322 259.753 40.5522 259.753 39.9122C259.753 39.2189 259.606 38.7255 259.313 38.4322C259.019 38.1389 258.659 37.9922 258.233 37.9922C257.566 37.9922 256.966 38.2589 256.433 38.7922C255.899 39.3255 255.406 40.0189 254.953 40.8722C254.526 41.6989 254.113 42.5789 253.713 43.5122C253.339 44.4455 252.979 45.3389 252.633 46.1922C252.286 47.0189 251.939 47.6989 251.593 48.2322C251.246 48.7655 250.886 49.0322 250.513 49.0322ZM253.473 35.1522C254.219 34.5655 254.939 33.8189 255.633 32.9122C256.353 32.0055 257.019 31.0455 257.633 30.0322C258.246 28.9922 258.793 27.9789 259.273 26.9922C259.753 26.0055 260.126 25.1122 260.393 24.3122C260.659 23.5122 260.793 22.9122 260.793 22.5122C260.793 22.3789 260.779 22.2989 260.753 22.2722C260.726 22.2189 260.686 22.1922 260.633 22.1922C260.446 22.1922 260.059 22.5655 259.473 23.3122C258.913 24.0322 258.259 25.0055 257.513 26.2322C256.766 27.4589 256.033 28.8455 255.313 30.3922C254.593 31.9389 253.979 33.5255 253.473 35.1522ZM281.527 50.9922C280.86 50.9922 280.234 50.8055 279.647 50.4322C279.06 50.0589 278.767 49.5789 278.767 48.9922C278.767 48.6989 278.834 48.3389 278.967 47.9122C279.1 47.5122 279.22 47.1389 279.327 46.7922C280.18 44.1789 280.98 41.7389 281.727 39.4722C282.474 37.2055 283.22 35.0055 283.967 32.8722C284.714 30.7389 285.5 28.6055 286.327 26.4722C287.18 24.3389 288.127 22.1122 289.167 19.7922C288.154 19.9789 287.247 20.2589 286.447 20.6322C285.674 20.9789 285.047 21.2989 284.567 21.5922C284.087 21.8589 283.767 21.9922 283.607 21.9922C283.5 21.9922 283.34 21.9389 283.127 21.8322C282.94 21.6989 282.767 21.5522 282.607 21.3922C282.447 21.2055 282.367 21.0455 282.367 20.9122C283.06 20.6189 283.874 20.2989 284.807 19.9522C285.767 19.6055 286.794 19.3122 287.887 19.0722C288.98 18.8322 290.087 18.7122 291.207 18.7122C292.38 18.7122 293.567 18.8722 294.767 19.1922C295.994 19.5122 297.114 20.0055 298.127 20.6722C299.14 21.3122 299.954 22.1122 300.567 23.0722C301.18 24.0322 301.487 25.1522 301.487 26.4322C301.487 27.8189 301.18 29.0189 300.567 30.0322C299.954 31.0189 299.14 31.8589 298.127 32.5522C297.114 33.2189 296.02 33.7655 294.847 34.1922C293.674 34.5922 292.5 34.9122 291.327 35.1522C290.18 35.3655 289.154 35.5122 288.247 35.5922C287.34 35.6455 286.674 35.6722 286.247 35.6722H285.847C285.047 38.4189 284.274 41.1255 283.527 43.7922C282.807 46.4589 282.14 48.8589 281.527 50.9922ZM286.007 35.0322C287.474 34.9522 288.954 34.7122 290.447 34.3122C291.967 33.9122 293.354 33.3389 294.607 32.5922C295.86 31.8189 296.874 30.8722 297.647 29.7522C298.42 28.6055 298.807 27.2722 298.807 25.7522C298.807 24.3122 298.46 23.1389 297.767 22.2322C297.1 21.3255 296.207 20.6589 295.087 20.2322C293.994 19.7789 292.82 19.5522 291.567 19.5522C290.58 21.4989 289.62 23.8322 288.687 26.5522C287.754 29.2722 286.86 32.0989 286.007 35.0322ZM299.479 48.7922C298.332 48.7922 297.519 48.4322 297.039 47.7122C296.559 47.0189 296.319 46.1655 296.319 45.1522C296.319 44.3255 296.452 43.4722 296.719 42.5922C296.985 41.7122 297.332 40.8855 297.759 40.1122C298.212 39.3389 298.705 38.7122 299.239 38.2322C299.799 37.7522 300.359 37.5122 300.919 37.5122C301.052 37.5122 301.185 37.5389 301.319 37.5922C301.479 37.6189 301.625 37.6589 301.759 37.7122C301.519 37.9255 301.225 38.3255 300.879 38.9122C300.559 39.4722 300.252 40.1255 299.959 40.8722C299.665 41.5922 299.412 42.3122 299.199 43.0322C299.012 43.7522 298.919 44.3655 298.919 44.8722C298.919 45.6722 299.052 46.2589 299.319 46.6322C299.585 46.9789 299.932 47.1522 300.359 47.1522C300.919 47.1522 301.585 46.8589 302.359 46.2722C303.132 45.6589 303.892 44.8855 304.639 43.9522C303.892 43.3389 303.305 42.5389 302.879 41.5522C302.479 40.5389 302.279 39.5122 302.279 38.4722C302.279 37.5922 302.425 36.7655 302.719 35.9922C303.039 35.2189 303.492 34.6055 304.079 34.1522C304.665 33.6722 305.372 33.4322 306.199 33.4322C307.292 33.4322 308.025 33.7255 308.399 34.3122C308.772 34.8989 308.959 35.6322 308.959 36.5122C308.959 37.5522 308.705 38.7122 308.199 39.9922C307.692 41.2455 307.052 42.4589 306.279 43.6322C306.759 43.8989 307.265 44.0322 307.799 44.0322C308.225 44.0322 308.705 43.9522 309.239 43.7922C309.772 43.6055 310.292 43.2989 310.799 42.8722C311.332 42.4455 311.759 41.8722 312.079 41.1522L312.559 41.5522C312.025 42.8055 311.265 43.6989 310.279 44.2322C309.319 44.7389 308.399 44.9922 307.519 44.9922C307.172 44.9922 306.839 44.9655 306.519 44.9122C306.199 44.8322 305.892 44.7255 305.599 44.5922C304.692 45.7922 303.692 46.7922 302.599 47.5922C301.532 48.3922 300.492 48.7922 299.479 48.7922ZM305.359 42.9122C306.025 41.9255 306.572 40.8989 306.999 39.8322C307.452 38.7389 307.679 37.7122 307.679 36.7522C307.679 35.9789 307.559 35.4189 307.319 35.0722C307.105 34.6989 306.825 34.5122 306.479 34.5122C305.945 34.5122 305.399 34.8989 304.839 35.6722C304.279 36.4455 303.999 37.4189 303.999 38.5922C303.999 39.3655 304.105 40.1522 304.319 40.9522C304.559 41.7255 304.905 42.3789 305.359 42.9122ZM314.728 49.3522C313.581 49.3522 312.701 49.0189 312.088 48.3522C311.475 47.6855 311.168 46.6989 311.168 45.3922C311.168 44.2189 311.381 42.7789 311.808 41.0722C312.261 39.3389 312.821 37.5655 313.488 35.7522C313.221 35.6989 312.968 35.6589 312.728 35.6322C312.488 35.5789 312.261 35.5122 312.048 35.4322V34.7122C312.261 34.7389 312.515 34.7655 312.808 34.7922C313.101 34.8189 313.435 34.8455 313.808 34.8722C314.368 33.4322 314.968 32.0455 315.608 30.7122C316.248 29.3522 316.875 28.1522 317.488 27.1122C318.128 26.0455 318.728 25.2055 319.288 24.5922C319.875 23.9522 320.368 23.6322 320.768 23.6322C320.981 23.6322 321.168 23.7122 321.328 23.8722C321.515 24.0055 321.608 24.2189 321.608 24.5122C321.608 24.9655 321.328 25.7122 320.768 26.7522C320.208 27.7655 319.515 28.9789 318.688 30.3922C317.861 31.8055 317.061 33.3389 316.288 34.9922C316.528 34.9922 316.768 34.9922 317.008 34.9922C317.275 34.9922 317.528 34.9922 317.768 34.9922C318.648 34.9922 319.568 34.9789 320.528 34.9522C321.515 34.9255 322.501 34.8589 323.488 34.7522V35.4722C322.021 35.6322 320.701 35.7522 319.528 35.8322C318.381 35.9122 317.355 35.9522 316.448 35.9522C316.341 35.9522 316.235 35.9522 316.128 35.9522C316.048 35.9522 315.955 35.9522 315.848 35.9522C315.235 37.3655 314.715 38.8189 314.288 40.3122C313.861 41.8055 313.648 43.2589 313.648 44.6722C313.648 45.8189 313.821 46.6455 314.168 47.1522C314.515 47.6322 315.088 47.8722 315.888 47.8722C317.275 47.8722 318.635 47.2589 319.968 46.0322C321.301 44.8055 322.475 43.1389 323.488 41.0322L324.008 41.4322C323.368 42.9255 322.555 44.2722 321.568 45.4722C320.608 46.6722 319.541 47.6189 318.368 48.3122C317.195 49.0055 315.981 49.3522 314.728 49.3522Z" fill="white"/>
</svg>
