<svg width="560" height="116" viewBox="0 0 560 116" fill="none" xmlns="http://www.w3.org/2000/svg">
<path d="M24.9279 0C24.9279 0 19.976 3.39423 19.6394 6.05289C19.3029 8.77644 23.8702 10.6779 23.3894 13.3798C23.0769 15.1659 19.399 17.0769 19.399 17.0769C19.399 17.0769 28.7019 16.2692 29.5673 12.6779C30.2644 9.83654 24.8077 8.6851 24.0385 5.86298C23.5337 3.95433 24.9279 0 24.9279 0ZM76.4663 1.17548C76.4663 1.17548 70.5048 4.4399 70.4808 7.29327C70.4567 9.03365 73.9423 9.37741 74.0385 11.1154C74.1587 13.1731 70.3606 16.0865 70.3606 16.0865C70.3606 16.0865 78.4375 15.1707 79.5192 12.0072C80.1683 10.1394 77.2596 8.6875 76.7308 6.78365C76.226 4.98077 76.4663 1.17548 76.4663 1.17548ZM50.7692 1.23798C50.7692 1.23798 44.3029 4.54327 44.7837 7.35577C45.1202 9.26202 49.7356 7.98558 50 9.90385C50.4087 13.0313 42.8846 16.149 42.8846 16.149C42.8846 16.149 56.4663 15.8029 57.0192 10.7957C57.2837 8.42067 52.2115 8.92308 51.0336 6.84615C50.0961 5.21875 50.7692 1.23798 50.7692 1.23798ZM0 21.363V25.6899H100V21.363H0ZM3.84615 30.2572C0.365385 51.1466 7.90865 63.4543 17.9327 70.6899C17.0673 64.7284 14.5433 58.887 9.50481 53.3341C19.1106 55.8582 26.6587 65.0649 30.024 74.2957C30.5769 69.7764 30.5769 67.6851 34.7115 63.6707C33.9663 69.6322 37.4038 70.0409 39.8077 69.2957C45.8894 67.3966 48.3654 59.8005 42.3558 50.3293C53.7981 55.7861 53.9663 61.9639 55.8894 70.4495C55.3125 62.4688 61.7308 59.2716 66.3942 62.2764C55.5529 67.7332 64.4231 72.4207 68.0529 73.5745C77.6683 76.6514 84.8798 62.4447 89.0144 51.6995C90.1442 56.4591 89.2067 61.2428 87.4519 66.0024C94.5673 58.4784 98.9663 47.1803 96.1538 30.2572H3.84615ZM48.149 72.3726L6.49038 96.339C7.13942 100.762 8.65385 104.608 11.0096 107.998L33.125 97.3966L14.2067 111.796C15.024 112.613 15.9135 113.382 16.851 114.127L34.8077 103.815C34.8077 103.647 34.7837 103.454 34.7837 103.286C34.7837 94.3438 42.1154 87.0361 51.0817 87.0361C53.6298 87.0361 56.0337 87.613 58.1731 88.6466C57.5962 85.4255 56.4183 82.1322 54.6154 79.2236L31.8029 88.863L51.6346 75.2812C50.5769 74.1995 49.4231 73.2139 48.149 72.3726ZM62.3077 86.2188C62.6923 87.9495 62.9327 89.6803 63.0288 91.363L63.0769 92.3005C65.7452 95.1851 67.3798 99.0553 67.3798 103.286C67.3798 105.161 67.0673 106.964 66.4663 108.623L88.4375 114.488C89.5433 112.974 90.5048 111.411 91.274 109.825L76.1058 103.887L92.9567 105.546C93.1731 104.825 93.3413 104.127 93.4856 103.406L70.1442 95.1611L93.9904 98.887C94.0385 97.4928 93.9663 96.0745 93.7981 94.6322L62.3077 86.2188ZM51.0817 91.5313C44.5433 91.5313 39.2788 96.7716 39.2788 103.286C39.2788 109.8 44.5433 115.041 51.0817 115.041C57.6442 115.041 62.9087 109.8 62.9087 103.286C62.9087 96.7716 57.6442 91.5313 51.0817 91.5313ZM49.9038 94.3678C60.4327 94.3678 63.9423 111.579 49.9038 111.579C56.2981 106.026 57.0673 100.305 49.9038 94.3678ZM49.9519 96.7236C44.7596 101.026 45.3125 105.185 49.9519 109.224C39.7596 109.224 42.3077 96.7236 49.9519 96.7236Z" fill="#56B972"/>
<path d="M135.12 86.7844C134.448 86.7844 133.608 86.6164 132.6 86.2804C131.64 85.9924 130.776 85.4404 130.008 84.6244C129.288 83.8084 128.928 82.6084 128.928 81.0244C128.928 79.6324 129.216 77.8084 129.792 75.5524C130.416 73.2964 131.184 70.7764 132.096 67.9924C133.008 65.1604 133.92 62.2084 134.832 59.1364C135.744 56.0164 136.488 52.8964 137.064 49.7764C137.688 46.6564 138 43.6564 138 40.7764C138 39.0004 137.928 37.3444 137.784 35.8084C137.688 34.2724 137.328 33.0484 136.704 32.1364C136.128 31.1764 135.12 30.6964 133.68 30.6964C132.336 30.6964 131.184 31.1044 130.224 31.9204C129.312 32.6884 128.544 33.6964 127.92 34.9444C127.344 36.1924 126.912 37.5124 126.624 38.9044C126.384 40.2964 126.264 41.5924 126.264 42.7924C126.264 43.5604 126.312 44.2804 126.408 44.9524C126.552 45.5764 126.72 46.1524 126.912 46.6804C125.04 46.6804 123.72 46.1764 122.952 45.1684C122.184 44.1124 121.8 42.8884 121.8 41.4964C121.8 40.0084 122.136 38.5204 122.808 37.0324C123.528 35.5444 124.488 34.1764 125.688 32.9284C126.936 31.6324 128.352 30.6004 129.936 29.8324C131.52 29.0644 133.2 28.6804 134.976 28.6804C137.952 28.6804 140.16 29.8564 141.6 32.2084C143.088 34.5124 143.832 37.6084 143.832 41.4964C143.832 44.2804 143.52 47.2084 142.896 50.2804C142.272 53.3044 141.504 56.3284 140.592 59.3524C139.68 62.3764 138.744 65.2804 137.784 68.0644C136.872 70.8484 136.104 73.4164 135.48 75.7684C134.856 78.1204 134.544 80.1124 134.544 81.7444C134.544 82.5604 134.664 83.2324 134.904 83.7604C135.192 84.2884 135.744 84.5524 136.56 84.5524C137.904 84.5524 139.464 83.8564 141.24 82.4644C143.016 81.1204 144.84 79.2724 146.712 76.9204C148.632 74.5204 150.48 71.8324 152.256 68.8564C154.08 65.8804 155.712 62.7844 157.152 59.5684C158.592 56.3044 159.744 53.1124 160.608 49.9924C161.472 46.8724 161.904 43.9924 161.904 41.3524C161.904 38.9524 161.544 37.2004 160.824 36.0964C160.104 34.9444 159.144 34.2004 157.944 33.8644C158.616 32.7124 159.312 31.8724 160.032 31.3444C160.8 30.8164 161.496 30.5524 162.12 30.5524C163.128 30.5524 164.112 31.2004 165.072 32.4964C166.032 33.7924 166.512 35.8084 166.512 38.5444C166.512 41.1844 166.008 44.1844 165 47.5444C164.04 50.9044 162.72 54.4084 161.04 58.0564C159.36 61.6564 157.44 65.1604 155.28 68.5684C153.12 71.9764 150.864 75.0484 148.512 77.7844C146.16 80.5204 143.832 82.7044 141.528 84.3364C139.224 85.9684 137.088 86.7844 135.12 86.7844ZM171.159 83.6884C168.231 83.6884 166.023 82.8724 164.535 81.2404C163.095 79.6564 162.375 77.6884 162.375 75.3364C162.375 73.1764 162.903 70.8964 163.959 68.4964C165.063 66.0964 166.503 63.8404 168.279 61.7284C170.103 59.6164 172.095 57.9124 174.255 56.6164C176.415 55.2724 178.551 54.6004 180.663 54.6004C181.767 54.6004 182.775 54.8884 183.687 55.4644C184.647 56.0404 185.127 57.2164 185.127 58.9924C185.127 60.8164 184.575 62.5444 183.471 64.1764C182.415 65.7604 180.999 67.1764 179.223 68.4244C177.495 69.6724 175.575 70.7044 173.463 71.5204C171.399 72.2884 169.335 72.7684 167.271 72.9604C167.175 73.4404 167.103 73.8964 167.055 74.3284C167.007 74.7604 166.983 75.1684 166.983 75.5524C166.983 76.2724 167.055 76.9924 167.199 77.7124C167.391 78.4324 167.703 79.1044 168.135 79.7284C168.567 80.3044 169.143 80.7604 169.863 81.0964C170.631 81.4324 171.567 81.6004 172.671 81.6004C174.735 81.6004 176.775 81.0244 178.791 79.8724C180.807 78.6724 182.679 77.1124 184.407 75.1924C186.135 73.2724 187.599 71.1604 188.799 68.8564L189.663 69.5044C188.367 72.3844 186.711 74.8804 184.695 76.9924C182.727 79.1044 180.567 80.7364 178.215 81.8884C175.911 83.0884 173.559 83.6884 171.159 83.6884ZM167.631 71.5924C168.927 71.1604 170.391 70.5364 172.023 69.7204C173.655 68.8564 175.215 67.8484 176.703 66.6964C178.239 65.5444 179.487 64.2724 180.447 62.8804C181.455 61.4884 181.959 60.0244 181.959 58.4884C181.959 57.9604 181.863 57.5524 181.671 57.2644C181.479 56.9764 181.071 56.8324 180.447 56.8324C179.295 56.8324 178.071 57.2884 176.775 58.2004C175.479 59.0644 174.231 60.2164 173.031 61.6564C171.831 63.0964 170.751 64.6804 169.791 66.4084C168.831 68.1364 168.111 69.8644 167.631 71.5924ZM190.095 100.68C189.039 100.68 188.079 100.344 187.215 99.6724C186.351 99.0484 185.919 97.9924 185.919 96.5044C185.919 95.0644 186.375 93.7204 187.287 92.4724C188.151 91.2724 189.279 90.1444 190.671 89.0884C192.063 88.0804 193.575 87.1444 195.207 86.2804C196.887 85.4164 198.471 84.6004 199.959 83.8324C200.631 82.1524 201.255 80.3524 201.831 78.4324C202.455 76.4644 203.055 74.3044 203.631 71.9524C201.807 74.5924 199.887 76.8004 197.871 78.5764C195.903 80.3044 193.911 81.1684 191.895 81.1684C190.167 81.1684 188.823 80.5204 187.863 79.2244C186.951 77.9284 186.495 76.2484 186.495 74.1844C186.495 71.6884 187.095 69.3124 188.295 67.0564C189.543 64.8004 191.151 62.8084 193.119 61.0804C195.087 59.3524 197.175 58.0084 199.383 57.0484C201.591 56.0404 203.655 55.5364 205.575 55.5364C206.967 55.5364 207.951 55.7764 208.527 56.2564C209.151 56.6884 209.463 57.2164 209.463 57.8404C209.463 58.2724 209.343 58.6084 209.103 58.8484C208.863 59.0884 208.695 59.2324 208.599 59.2804C208.359 58.8964 207.999 58.6324 207.519 58.4884C207.039 58.2964 206.439 58.2004 205.719 58.2004C203.847 58.2004 202.023 58.7524 200.247 59.8564C198.519 60.9604 196.983 62.3764 195.639 64.1044C194.295 65.8324 193.215 67.6324 192.399 69.5044C191.631 71.3284 191.247 73.0084 191.247 74.5444C191.247 75.6964 191.463 76.5844 191.895 77.2084C192.375 77.7844 192.999 78.0724 193.767 78.0724C195.159 78.0724 196.815 77.1604 198.735 75.3364C200.703 73.4644 202.599 71.2084 204.423 68.5684C204.567 67.8964 204.687 67.2964 204.783 66.7684C204.927 66.2404 205.095 65.5684 205.287 64.7524C205.431 64.0804 205.767 63.3124 206.295 62.4484C206.871 61.5364 207.759 61.0804 208.959 61.0804C209.199 61.0804 209.439 61.1044 209.679 61.1524C209.919 61.1524 210.183 61.2004 210.471 61.2964C210.471 62.0644 210.231 63.4804 209.751 65.5444C209.319 67.5604 208.671 69.9364 207.807 72.6724C206.991 75.3604 206.031 78.1444 204.927 81.0244C206.511 80.2564 208.047 79.2724 209.535 78.0724C211.071 76.8724 212.463 75.5044 213.711 73.9684C214.959 72.3844 215.943 70.6804 216.663 68.8564L217.599 69.5764C216.879 71.7364 215.727 73.7044 214.143 75.4804C212.559 77.2564 210.855 78.7924 209.031 80.0884C207.255 81.3844 205.623 82.3924 204.135 83.1124C202.791 86.3284 201.375 89.2564 199.887 91.8964C198.399 94.5844 196.839 96.7204 195.207 98.3044C193.623 99.8884 191.919 100.68 190.095 100.68ZM189.879 98.3764C190.839 98.3764 192.135 97.4164 193.767 95.4964C195.447 93.6244 197.247 90.3844 199.167 85.7764C197.247 86.7364 195.447 87.7204 193.767 88.7284C192.135 89.7844 190.791 90.8884 189.735 92.0404C188.679 93.1924 188.151 94.4644 188.151 95.8564C188.151 96.6244 188.319 97.2244 188.655 97.6564C188.991 98.1364 189.399 98.3764 189.879 98.3764ZM218.8 83.9044C217.312 83.9044 216.064 83.4004 215.056 82.3924C214 81.4324 213.472 79.9444 213.472 77.9284C213.472 76.2004 213.856 74.3524 214.624 72.3844C215.392 70.3684 216.448 68.4004 217.792 66.4804C219.136 64.5124 220.648 62.7364 222.328 61.1524C224.056 59.5204 225.856 58.2244 227.728 57.2644C229.648 56.3044 231.544 55.8244 233.416 55.8244C235.288 55.8244 236.848 56.3284 238.096 57.3364C239.344 58.2964 239.968 59.5924 239.968 61.2244C239.968 62.4244 239.632 63.2404 238.96 63.6724C238.336 64.1044 237.496 64.3204 236.44 64.3204C236.536 63.9364 236.608 63.5284 236.656 63.0964C236.752 62.6164 236.8 62.1844 236.8 61.8004C236.8 60.6964 236.536 59.7604 236.008 58.9924C235.48 58.1764 234.568 57.7684 233.272 57.7684C231.928 57.7684 230.56 58.2484 229.168 59.2084C227.776 60.1204 226.432 61.3684 225.136 62.9524C223.84 64.4884 222.688 66.1684 221.68 67.9924C220.672 69.8164 219.88 71.6164 219.304 73.3924C218.728 75.1684 218.44 76.7524 218.44 78.1444C218.44 80.0164 219.088 80.9524 220.384 80.9524C221.488 80.9524 222.688 80.4484 223.984 79.4404C225.28 78.3844 226.6 77.0644 227.944 75.4804C229.336 73.8484 230.656 72.1684 231.904 70.4404C233.152 68.7124 234.256 67.1284 235.216 65.6884C235.408 65.4004 235.528 65.2564 235.576 65.2564C235.864 65.3044 236.224 65.4004 236.656 65.5444C237.136 65.6884 237.544 65.8804 237.88 66.1204C238.216 66.3604 238.384 66.6724 238.384 67.0564C238.384 67.4884 238.168 68.0884 237.736 68.8564C237.304 69.5764 236.824 70.4164 236.296 71.3764C235.768 72.3364 235.288 73.3204 234.856 74.3284C234.424 75.2884 234.208 76.2004 234.208 77.0644C234.208 77.7844 234.4 78.5044 234.784 79.2244C235.168 79.8964 235.792 80.2324 236.656 80.2324C237.952 80.2324 239.656 79.2964 241.768 77.4244C243.88 75.5044 246.016 72.6484 248.176 68.8564L248.896 69.5764C247.888 72.1684 246.592 74.4484 245.008 76.4164C243.424 78.3844 241.72 79.9204 239.896 81.0244C238.12 82.1284 236.368 82.6804 234.64 82.6804C232.864 82.6804 231.544 82.1524 230.68 81.0964C229.864 80.0404 229.456 78.8884 229.456 77.6404C229.456 77.3524 229.48 77.0404 229.528 76.7044C229.576 76.3204 229.624 75.9364 229.672 75.5524C227.608 78.3364 225.712 80.4244 223.984 81.8164C222.304 83.2084 220.576 83.9044 218.8 83.9044ZM269.959 81.9604C268.279 81.9604 267.007 81.5284 266.143 80.6644C265.327 79.8004 264.919 78.6964 264.919 77.3524C264.919 76.3444 265.087 75.2884 265.423 74.1844C265.807 73.0804 266.167 71.9524 266.503 70.8004C266.839 69.6004 267.007 68.4484 267.007 67.3444C267.007 66.0004 266.719 65.0884 266.143 64.6084C265.615 64.0804 264.943 63.8164 264.127 63.8164C262.639 63.8164 261.127 64.4404 259.591 65.6884C258.055 66.8884 256.567 68.4484 255.127 70.3684C253.687 72.2404 252.343 74.1844 251.095 76.2004C249.847 78.2164 248.743 80.0164 247.783 81.6004C247.015 81.6004 246.295 81.4564 245.623 81.1684C244.903 80.9284 244.351 80.5444 243.967 80.0164C243.967 79.7764 244.231 79.0324 244.759 77.7844C245.239 76.5364 245.815 75.0004 246.487 73.1764C247.159 71.3524 247.759 69.4804 248.287 67.5604C248.815 65.6404 249.079 63.8884 249.079 62.3044C249.367 61.9684 249.823 61.6324 250.447 61.2964C251.071 60.9604 251.719 60.7924 252.391 60.7924C253.687 60.7924 254.335 61.4164 254.335 62.6644C254.335 63.4324 254.119 64.7284 253.687 66.5524C253.255 68.3284 252.703 70.2004 252.031 72.1684C253.327 70.2004 254.767 68.2564 256.351 66.3364C257.983 64.3684 259.711 62.7364 261.535 61.4404C263.359 60.1444 265.183 59.4964 267.007 59.4964C268.879 59.4964 270.223 60.1684 271.039 61.5124C271.903 62.8564 272.335 64.3444 272.335 65.9764C272.335 67.4644 272.095 68.8564 271.615 70.1524C271.135 71.4004 270.631 72.6244 270.103 73.8244C269.623 74.9764 269.383 76.1524 269.383 77.3524C269.383 78.3604 269.575 79.0804 269.959 79.5124C270.391 79.8964 270.919 80.0884 271.543 80.0884C272.743 80.0884 273.943 79.5364 275.143 78.4324C276.343 77.2804 277.495 75.8404 278.599 74.1124C279.751 72.3844 280.759 70.6324 281.623 68.8564L282.415 69.7924C281.407 72.1444 280.279 74.2324 279.031 76.0564C277.783 77.8804 276.415 79.3204 274.927 80.3764C273.439 81.4324 271.783 81.9604 269.959 81.9604ZM314.065 86.7844C313.537 86.7844 312.913 86.6884 312.193 86.4964C311.521 86.3524 310.849 86.0644 310.177 85.6324C309.505 85.2484 308.953 84.6724 308.521 83.9044C308.089 83.1844 307.873 82.2244 307.873 81.0244C307.873 79.3444 308.281 77.1364 309.097 74.4004C309.913 71.6164 310.849 68.5444 311.905 65.1844C312.721 62.5924 313.513 59.9044 314.281 57.1204C315.049 54.3364 315.673 51.5524 316.153 48.7684C316.681 45.9844 316.945 43.3204 316.945 40.7764C316.945 39.0004 316.873 37.3444 316.729 35.8084C316.633 34.2724 316.273 33.0484 315.649 32.1364C315.073 31.1764 314.065 30.6964 312.625 30.6964C311.281 30.6964 310.129 31.1044 309.169 31.9204C308.257 32.6884 307.489 33.6964 306.865 34.9444C306.289 36.1924 305.857 37.5124 305.569 38.9044C305.329 40.2964 305.209 41.5924 305.209 42.7924C305.209 44.3764 305.425 45.6724 305.857 46.6804C303.985 46.6804 302.665 46.1764 301.897 45.1684C301.129 44.1124 300.745 42.8884 300.745 41.4964C300.745 40.0084 301.081 38.5204 301.753 37.0324C302.473 35.5444 303.433 34.1764 304.633 32.9284C305.881 31.6324 307.297 30.6004 308.881 29.8324C310.465 29.0644 312.145 28.6804 313.921 28.6804C316.897 28.6804 319.105 29.8564 320.545 32.2084C322.033 34.5124 322.777 37.6084 322.777 41.4964C322.777 45.0004 322.273 48.7204 321.265 52.6564C320.305 56.5444 319.225 60.3364 318.025 64.0324C317.257 66.4324 316.513 68.7364 315.793 70.9444C315.121 73.1044 314.569 75.0964 314.137 76.9204C313.705 78.7444 313.489 80.3524 313.489 81.7444C313.489 82.6564 313.633 83.3524 313.921 83.8324C314.209 84.3124 314.785 84.5524 315.649 84.5524C316.849 84.5524 318.169 83.9764 319.609 82.8244C321.097 81.7204 322.585 80.2084 324.073 78.2884C325.609 76.3684 327.073 74.2564 328.465 71.9524C329.905 69.6004 331.201 67.2004 332.353 64.7524C333.553 62.3044 334.537 59.9764 335.305 57.7684C336.121 55.5604 336.625 53.6644 336.817 52.0804C338.401 52.0804 339.505 52.4884 340.129 53.3044C340.801 54.1204 341.137 54.8884 341.137 55.6084C341.137 56.3764 340.825 57.5524 340.201 59.1364C339.577 60.7204 338.833 62.4964 337.969 64.4644C337.249 66.1924 336.505 68.0404 335.737 70.0084C335.017 71.9764 334.393 73.9444 333.865 75.9124C333.385 77.8804 333.145 79.7524 333.145 81.5284C333.145 82.4404 333.265 83.1604 333.505 83.6884C333.745 84.2644 334.297 84.5524 335.161 84.5524C336.505 84.5524 338.065 83.8564 339.841 82.4644C341.617 81.1204 343.441 79.2724 345.313 76.9204C347.233 74.5204 349.081 71.8324 350.857 68.8564C352.681 65.8804 354.313 62.7844 355.753 59.5684C357.193 56.3044 358.345 53.1124 359.209 49.9924C360.073 46.8724 360.505 43.9924 360.505 41.3524C360.505 38.9524 360.145 37.2004 359.425 36.0964C358.705 34.9444 357.745 34.2004 356.545 33.8644C357.217 32.7124 357.913 31.8724 358.633 31.3444C359.401 30.8164 360.097 30.5524 360.721 30.5524C361.729 30.5524 362.713 31.2004 363.673 32.4964C364.633 33.7924 365.113 35.8084 365.113 38.5444C365.113 41.1844 364.609 44.1844 363.601 47.5444C362.641 50.9044 361.321 54.4084 359.641 58.0564C357.961 61.6564 356.041 65.1604 353.881 68.5684C351.721 71.9764 349.465 75.0484 347.113 77.7844C344.761 80.5204 342.433 82.7044 340.129 84.3364C337.825 85.9684 335.689 86.7844 333.721 86.7844C332.809 86.7844 331.873 86.5924 330.913 86.2084C329.953 85.8244 329.137 85.2244 328.465 84.4084C327.841 83.6404 327.529 82.6324 327.529 81.3844C327.529 80.6644 327.649 79.7524 327.889 78.6484C328.177 77.4964 328.537 76.2484 328.969 74.9044C326.521 78.3604 324.001 81.1924 321.409 83.4004C318.865 85.6564 316.417 86.7844 314.065 86.7844ZM367.551 82.3924C365.679 82.3924 364.287 81.7924 363.375 80.5924C362.463 79.4404 362.007 78.0244 362.007 76.3444C362.007 75.2404 362.199 73.8484 362.583 72.1684C363.015 70.4884 363.567 68.7364 364.239 66.9124C364.911 65.0404 365.679 63.2884 366.543 61.6564C367.455 60.0244 368.415 58.7044 369.423 57.6964C370.431 56.6404 371.415 56.1124 372.375 56.1124C372.807 56.1124 373.167 56.2564 373.455 56.5444C373.791 56.7844 373.959 57.1684 373.959 57.6964C373.959 58.2724 373.575 59.2084 372.807 60.5044C372.087 61.8004 371.223 63.2884 370.215 64.9684C369.207 66.6484 368.319 68.4244 367.551 70.2964C366.831 72.1204 366.471 73.8724 366.471 75.5524C366.471 77.2804 366.759 78.4324 367.335 79.0084C367.911 79.5844 368.799 79.8724 369.999 79.8724C371.631 79.8724 373.359 79.0564 375.183 77.4244C377.055 75.7924 379.023 72.9364 381.087 68.8564L381.735 69.5764C380.343 73.7044 378.327 76.8724 375.687 79.0804C373.095 81.2884 370.383 82.3924 367.551 82.3924ZM376.191 49.4164C375.423 49.4164 374.727 49.2244 374.103 48.8404C373.527 48.4564 373.239 47.8564 373.239 47.0404C373.239 46.0324 373.815 45.1684 374.967 44.4484C376.167 43.6804 377.343 43.2964 378.495 43.2964C379.215 43.2964 379.791 43.4644 380.223 43.8004C380.655 44.1364 380.871 44.7124 380.871 45.5284C380.871 46.4404 380.367 47.3284 379.359 48.1924C378.399 49.0084 377.343 49.4164 376.191 49.4164ZM385.854 83.8324C383.79 83.8324 382.206 83.2324 381.102 82.0324C379.998 80.8324 379.446 79.0564 379.446 76.7044C379.446 74.5924 379.83 72.0004 380.598 68.9284C381.414 65.8084 382.422 62.6164 383.622 59.3524C383.142 59.2564 382.686 59.1844 382.254 59.1364C381.822 59.0404 381.414 58.9204 381.03 58.7764V57.4804C381.414 57.5284 381.87 57.5764 382.398 57.6244C382.926 57.6724 383.526 57.7204 384.198 57.7684C385.206 55.1764 386.286 52.6804 387.438 50.2804C388.59 47.8324 389.718 45.6724 390.822 43.8004C391.974 41.8804 393.054 40.3684 394.062 39.2644C395.118 38.1124 396.006 37.5364 396.726 37.5364C397.11 37.5364 397.446 37.6804 397.734 37.9684C398.07 38.2084 398.238 38.5924 398.238 39.1204C398.238 39.9364 397.734 41.2804 396.726 43.1524C395.718 44.9764 394.47 47.1604 392.982 49.7044C391.494 52.2484 390.054 55.0084 388.662 57.9844C389.094 57.9844 389.526 57.9844 389.958 57.9844C390.438 57.9844 390.894 57.9844 391.326 57.9844C392.91 57.9844 394.566 57.9604 396.294 57.9124C398.07 57.8644 399.846 57.7444 401.622 57.5524V58.8484C398.982 59.1364 396.606 59.3524 394.494 59.4964C392.43 59.6404 390.582 59.7124 388.95 59.7124C388.758 59.7124 388.566 59.7124 388.374 59.7124C388.23 59.7124 388.062 59.7124 387.87 59.7124C386.766 62.2564 385.83 64.8724 385.062 67.5604C384.294 70.2484 383.91 72.8644 383.91 75.4084C383.91 77.4724 384.222 78.9604 384.846 79.8724C385.47 80.7364 386.502 81.1684 387.942 81.1684C390.438 81.1684 392.886 80.0644 395.286 77.8564C397.686 75.6484 399.798 72.6484 401.622 68.8564L402.558 69.5764C401.406 72.2644 399.942 74.6884 398.166 76.8484C396.438 79.0084 394.518 80.7124 392.406 81.9604C390.294 83.2084 388.11 83.8324 385.854 83.8324ZM407.97 84.5524C405.666 84.5524 403.746 83.7844 402.21 82.2484C400.674 80.7124 399.906 78.4084 399.906 75.3364C399.906 72.9364 400.362 70.6084 401.274 68.3524C402.234 66.0484 403.482 63.9844 405.018 62.1604C406.554 60.3364 408.258 58.8964 410.13 57.8404C412.002 56.7364 413.85 56.1844 415.674 56.1844C417.642 56.1844 418.986 56.7604 419.706 57.9124C420.426 59.0644 420.786 60.2644 420.786 61.5124C420.786 62.9044 420.45 64.1284 419.778 65.1844C419.154 66.2404 418.29 66.7684 417.186 66.7684C416.37 66.7684 415.674 66.4084 415.098 65.6884C415.818 65.3044 416.442 64.5364 416.97 63.3844C417.498 62.1844 417.762 61.0564 417.762 60.0004C417.762 59.4244 417.642 58.9924 417.402 58.7044C417.21 58.3684 416.802 58.2004 416.178 58.2004C414.882 58.2004 413.538 58.7764 412.146 59.9284C410.802 61.0804 409.53 62.5684 408.33 64.3924C407.178 66.2164 406.218 68.1364 405.45 70.1524C404.73 72.1684 404.37 74.0644 404.37 75.8404C404.37 77.3284 404.73 78.6964 405.45 79.9444C406.17 81.1924 407.562 81.8164 409.626 81.8164C411.546 81.8164 413.466 81.2884 415.386 80.2324C417.354 79.1764 419.178 77.6644 420.858 75.6964C422.538 73.7284 423.882 71.4244 424.89 68.7844L425.826 69.5044C424.722 72.3844 423.21 74.9764 421.29 77.2804C419.37 79.5364 417.258 81.3124 414.954 82.6084C412.65 83.9044 410.322 84.5524 407.97 84.5524ZM426.923 83.2564C426.011 83.2564 425.291 82.4884 424.763 80.9524C424.235 79.4164 423.971 77.6884 423.971 75.7684C423.971 73.4644 424.355 70.7284 425.123 67.5604C425.891 64.3924 426.899 61.0564 428.147 57.5524C429.395 54.0484 430.787 50.6164 432.323 47.2564C433.907 43.8964 435.515 40.8484 437.147 38.1124C438.779 35.3764 440.315 33.1924 441.755 31.5604C443.195 29.9284 444.443 29.1124 445.499 29.1124C446.363 29.1124 446.963 29.6404 447.299 30.6964C447.683 31.7044 447.875 32.6884 447.875 33.6484C447.875 34.9924 447.563 36.6244 446.939 38.5444C446.363 40.4644 445.547 42.5284 444.491 44.7364C443.435 46.8964 442.211 49.0324 440.819 51.1444C439.427 53.2564 437.915 55.2004 436.283 56.9764C434.651 58.7044 432.995 60.0724 431.315 61.0804C430.739 62.4724 430.235 64.0324 429.803 65.7604C429.419 67.4884 429.131 69.1924 428.939 70.8724C428.747 72.5044 428.651 73.9684 428.651 75.2644C428.651 75.7924 428.651 76.2484 428.651 76.6324C428.699 77.0164 428.747 77.3764 428.795 77.7124C429.467 75.7444 430.187 73.8484 430.955 72.0244C431.771 70.1524 432.635 68.4484 433.547 66.9124C434.459 65.3284 435.419 63.9604 436.427 62.8084C437.483 61.6084 438.587 60.6964 439.739 60.0724C440.891 59.4004 442.115 59.0644 443.411 59.0644C444.755 59.0644 445.811 59.4004 446.579 60.0724C447.395 60.6964 447.971 61.5124 448.307 62.5204C448.691 63.4804 448.883 64.4884 448.883 65.5444C448.883 67.0324 448.619 68.4724 448.091 69.8644C447.611 71.2564 447.107 72.6004 446.579 73.8964C446.051 75.1924 445.787 76.4404 445.787 77.6404C445.787 78.6004 445.979 79.2964 446.363 79.7284C446.795 80.1604 447.323 80.3764 447.947 80.3764C449.051 80.3764 450.275 79.8484 451.619 78.7924C453.011 77.7364 454.379 76.3444 455.723 74.6164C457.067 72.8404 458.219 70.9204 459.179 68.8564L460.115 69.7204C459.107 72.0724 457.883 74.2084 456.443 76.1284C455.003 78.0004 453.419 79.4884 451.691 80.5924C449.963 81.6964 448.163 82.2484 446.291 82.2484C444.659 82.2484 443.411 81.8164 442.547 80.9524C441.731 80.0884 441.323 79.0084 441.323 77.7124C441.323 76.7044 441.515 75.5764 441.899 74.3284C442.283 73.0804 442.643 71.8084 442.979 70.5124C443.363 69.2164 443.555 67.9924 443.555 66.8404C443.555 65.5924 443.291 64.7044 442.763 64.1764C442.235 63.6484 441.587 63.3844 440.819 63.3844C439.619 63.3844 438.539 63.8644 437.579 64.8244C436.619 65.7844 435.731 67.0324 434.915 68.5684C434.147 70.0564 433.403 71.6404 432.683 73.3204C432.011 75.0004 431.363 76.6084 430.739 78.1444C430.115 79.6324 429.491 80.8564 428.867 81.8164C428.243 82.7764 427.595 83.2564 426.923 83.2564ZM432.251 58.2724C433.595 57.2164 434.891 55.8724 436.139 54.2404C437.435 52.6084 438.635 50.8804 439.739 49.0564C440.843 47.1844 441.827 45.3604 442.691 43.5844C443.555 41.8084 444.227 40.2004 444.707 38.7604C445.187 37.3204 445.427 36.2404 445.427 35.5204C445.427 35.2804 445.403 35.1364 445.355 35.0884C445.307 34.9924 445.235 34.9444 445.139 34.9444C444.803 34.9444 444.107 35.6164 443.051 36.9604C442.043 38.2564 440.867 40.0084 439.523 42.2164C438.179 44.4244 436.859 46.9204 435.563 49.7044C434.267 52.4884 433.163 55.3444 432.251 58.2724ZM482.748 86.7844C481.548 86.7844 480.42 86.4484 479.364 85.7764C478.308 85.1044 477.78 84.2404 477.78 83.1844C477.78 82.6564 477.9 82.0084 478.14 81.2404C478.38 80.5204 478.596 79.8484 478.788 79.2244C480.324 74.5204 481.764 70.1284 483.108 66.0484C484.452 61.9684 485.796 58.0084 487.14 54.1684C488.484 50.3284 489.9 46.4884 491.388 42.6484C492.924 38.8084 494.628 34.8004 496.5 30.6244C494.676 30.9604 493.044 31.4644 491.604 32.1364C490.212 32.7604 489.084 33.3364 488.22 33.8644C487.356 34.3444 486.78 34.5844 486.492 34.5844C486.3 34.5844 486.012 34.4884 485.628 34.2964C485.292 34.0564 484.98 33.7924 484.692 33.5044C484.404 33.1684 484.26 32.8804 484.26 32.6404C485.508 32.1124 486.972 31.5364 488.652 30.9124C490.38 30.2884 492.228 29.7604 494.196 29.3284C496.164 28.8964 498.156 28.6804 500.172 28.6804C502.284 28.6804 504.42 28.9684 506.58 29.5444C508.788 30.1204 510.804 31.0084 512.628 32.2084C514.452 33.3604 515.916 34.8004 517.02 36.5284C518.124 38.2564 518.676 40.2724 518.676 42.5764C518.676 45.0724 518.124 47.2324 517.02 49.0564C515.916 50.8324 514.452 52.3444 512.628 53.5924C510.804 54.7924 508.836 55.7764 506.724 56.5444C504.612 57.2644 502.5 57.8404 500.388 58.2724C498.324 58.6564 496.476 58.9204 494.844 59.0644C493.212 59.1604 492.012 59.2084 491.244 59.2084H490.524C489.084 64.1524 487.692 69.0244 486.348 73.8244C485.052 78.6244 483.852 82.9444 482.748 86.7844ZM490.812 58.0564C493.452 57.9124 496.116 57.4804 498.804 56.7604C501.54 56.0404 504.036 55.0084 506.292 53.6644C508.548 52.2724 510.372 50.5684 511.764 48.5524C513.156 46.4884 513.852 44.0884 513.852 41.3524C513.852 38.7604 513.228 36.6484 511.98 35.0164C510.78 33.3844 509.172 32.1844 507.156 31.4164C505.188 30.6004 503.076 30.1924 500.82 30.1924C499.044 33.6964 497.316 37.8964 495.636 42.7924C493.956 47.6884 492.348 52.7764 490.812 58.0564ZM515.062 82.8244C512.998 82.8244 511.534 82.1764 510.67 80.8804C509.806 79.6324 509.374 78.0964 509.374 76.2724C509.374 74.7844 509.614 73.2484 510.094 71.6644C510.574 70.0804 511.198 68.5924 511.966 67.2004C512.782 65.8084 513.67 64.6804 514.63 63.8164C515.638 62.9524 516.646 62.5204 517.654 62.5204C517.894 62.5204 518.134 62.5684 518.374 62.6644C518.662 62.7124 518.926 62.7844 519.166 62.8804C518.734 63.2644 518.206 63.9844 517.582 65.0404C517.006 66.0484 516.454 67.2244 515.926 68.5684C515.398 69.8644 514.942 71.1604 514.558 72.4564C514.222 73.7524 514.054 74.8564 514.054 75.7684C514.054 77.2084 514.294 78.2644 514.774 78.9364C515.254 79.5604 515.878 79.8724 516.646 79.8724C517.654 79.8724 518.854 79.3444 520.246 78.2884C521.638 77.1844 523.006 75.7924 524.35 74.1124C523.006 73.0084 521.95 71.5684 521.182 69.7924C520.462 67.9684 520.102 66.1204 520.102 64.2484C520.102 62.6644 520.366 61.1764 520.894 59.7844C521.47 58.3924 522.286 57.2884 523.342 56.4724C524.398 55.6084 525.67 55.1764 527.158 55.1764C529.126 55.1764 530.446 55.7044 531.118 56.7604C531.79 57.8164 532.126 59.1364 532.126 60.7204C532.126 62.5924 531.67 64.6804 530.758 66.9844C529.846 69.2404 528.694 71.4244 527.302 73.5364C528.166 74.0164 529.078 74.2564 530.038 74.2564C530.806 74.2564 531.67 74.1124 532.63 73.8244C533.59 73.4884 534.526 72.9364 535.438 72.1684C536.398 71.4004 537.166 70.3684 537.742 69.0724L538.606 69.7924C537.646 72.0484 536.278 73.6564 534.502 74.6164C532.774 75.5284 531.118 75.9844 529.534 75.9844C528.91 75.9844 528.31 75.9364 527.734 75.8404C527.158 75.6964 526.606 75.5044 526.078 75.2644C524.446 77.4244 522.646 79.2244 520.678 80.6644C518.758 82.1044 516.886 82.8244 515.062 82.8244ZM525.646 72.2404C526.846 70.4644 527.83 68.6164 528.598 66.6964C529.414 64.7284 529.822 62.8804 529.822 61.1524C529.822 59.7604 529.606 58.7524 529.174 58.1284C528.79 57.4564 528.286 57.1204 527.662 57.1204C526.702 57.1204 525.718 57.8164 524.71 59.2084C523.702 60.6004 523.198 62.3524 523.198 64.4644C523.198 65.8564 523.39 67.2724 523.774 68.7124C524.206 70.1044 524.83 71.2804 525.646 72.2404ZM542.511 83.8324C540.447 83.8324 538.863 83.2324 537.759 82.0324C536.655 80.8324 536.103 79.0564 536.103 76.7044C536.103 74.5924 536.487 72.0004 537.255 68.9284C538.071 65.8084 539.079 62.6164 540.279 59.3524C539.799 59.2564 539.343 59.1844 538.911 59.1364C538.479 59.0404 538.071 58.9204 537.687 58.7764V57.4804C538.071 57.5284 538.527 57.5764 539.055 57.6244C539.583 57.6724 540.183 57.7204 540.855 57.7684C541.863 55.1764 542.943 52.6804 544.095 50.2804C545.247 47.8324 546.375 45.6724 547.479 43.8004C548.631 41.8804 549.711 40.3684 550.719 39.2644C551.775 38.1124 552.663 37.5364 553.383 37.5364C553.767 37.5364 554.103 37.6804 554.391 37.9684C554.727 38.2084 554.895 38.5924 554.895 39.1204C554.895 39.9364 554.391 41.2804 553.383 43.1524C552.375 44.9764 551.127 47.1604 549.639 49.7044C548.151 52.2484 546.711 55.0084 545.319 57.9844C545.751 57.9844 546.183 57.9844 546.615 57.9844C547.095 57.9844 547.551 57.9844 547.983 57.9844C549.567 57.9844 551.223 57.9604 552.951 57.9124C554.727 57.8644 556.503 57.7444 558.279 57.5524V58.8484C555.639 59.1364 553.263 59.3524 551.151 59.4964C549.087 59.6404 547.239 59.7124 545.607 59.7124C545.415 59.7124 545.223 59.7124 545.031 59.7124C544.887 59.7124 544.719 59.7124 544.527 59.7124C543.423 62.2564 542.487 64.8724 541.719 67.5604C540.951 70.2484 540.567 72.8644 540.567 75.4084C540.567 77.4724 540.879 78.9604 541.503 79.8724C542.127 80.7364 543.159 81.1684 544.599 81.1684C547.095 81.1684 549.543 80.0644 551.943 77.8564C554.343 75.6484 556.455 72.6484 558.279 68.8564L559.215 69.5764C558.063 72.2644 556.599 74.6884 554.823 76.8484C553.095 79.0084 551.175 80.7124 549.063 81.9604C546.951 83.2084 544.767 83.8324 542.511 83.8324Z" fill="white"/>
</svg>
