<svg width="22" height="23" viewBox="0 0 22 23" fill="none" xmlns="http://www.w3.org/2000/svg">
<path d="M19.8634 0.583429C19.6852 0.588585 19.493 0.668272 19.3243 0.863741C16.7743 4.55233 13.943 8.1664 11.0602 11.7617C11.168 11.8039 11.2712 11.8508 11.3649 11.907C11.5759 12.0242 11.7587 12.1695 11.9134 12.3289C14.8899 8.77108 17.8102 5.18515 20.3555 1.42437C20.5571 0.963116 20.4071 0.776085 20.1774 0.655616C20.1212 0.625147 20.0555 0.602647 19.9852 0.591397C19.9477 0.585304 19.9055 0.582491 19.8634 0.583429ZM1.95898 1.68405C2.31945 2.31687 2.7371 2.92577 2.06445 3.89421C2.55429 3.39171 3.14023 2.88593 4.05241 3.82858C3.85554 3.35187 3.24335 2.9853 3.76648 2.24843C2.96679 2.65062 2.55429 2.24843 1.95898 1.68405ZM11.5243 3.91577C11.1774 4.43515 10.6665 4.6039 9.99617 4.39765C10.6665 4.62733 11.004 5.07733 10.8259 5.88358C11.2149 5.15702 11.6743 4.88046 12.2087 5.08202C11.9087 4.78671 11.3977 4.7539 11.5243 3.91577ZM20.0321 6.10858C19.8446 7.16327 19.7509 8.26015 18.0071 8.49452C19.0805 8.53202 20.2618 8.66796 20.4305 10.6601C20.6649 9.95702 20.2899 8.88827 21.6305 8.72421C20.2899 8.23671 20.1915 7.35546 20.0321 6.10858ZM3.20773 10.6086C3.30616 11.7711 2.82804 12.5492 1.4696 12.7461C2.84679 12.9195 3.57335 13.468 3.62023 14.4101C3.88366 13.7773 3.58741 12.9664 4.96648 12.6851C3.93054 12.4414 3.33429 11.7617 3.20773 10.6086ZM10.493 12.4695L9.86491 13.2476C9.93523 13.2851 10.0055 13.3273 10.0759 13.3695C10.2821 13.5008 10.4837 13.6555 10.6524 13.8289L11.3649 12.9851C11.2571 12.8586 11.1118 12.732 10.9477 12.6383C10.8071 12.5586 10.6524 12.4976 10.493 12.4695ZM8.74929 13.7633C8.71179 13.7633 8.67898 13.7633 8.65554 13.768C8.60866 13.7773 8.58523 13.7914 8.57585 13.8008L8.55241 13.8289L8.52429 13.8476C6.32585 15.5351 3.0371 17.1617 0.369446 18.7367C1.06179 18.943 1.76773 19.1914 2.45913 19.468L4.16491 18.0383L3.14163 19.7586C3.93991 20.1148 4.70866 20.518 5.39304 20.9586L6.67273 18.9055L6.10085 21.4461C6.52273 21.7601 6.89773 22.093 7.21648 22.4351C8.49148 19.6648 10.1696 17.7383 10.3899 15.1789L10.3946 15.1508L10.3993 15.1226C10.4274 15.0148 10.3899 14.8555 10.254 14.6539C10.1134 14.457 9.88366 14.2461 9.62585 14.082C9.37273 13.9226 9.08679 13.8101 8.88054 13.7773C8.82898 13.768 8.78679 13.7633 8.74929 13.7633ZM13.9618 13.7726C14.4165 14.3867 14.4259 14.982 13.7415 15.568C14.5665 15.1836 15.1618 15.2305 15.5134 15.7367C15.4337 15.2961 14.993 14.9492 15.654 14.3117C14.9977 14.5367 14.4305 14.368 13.9618 13.7726ZM16.6196 18.0289C17.168 18.8445 17.5571 19.4117 16.8118 20.2695C17.9087 19.8008 18.1946 20.5976 18.743 20.9164C17.8102 19.6601 18.6212 19.0742 19.404 18.5961C17.9743 19.1961 17.3227 18.582 16.6196 18.0289Z" fill="#95BD52"/>
</svg>
