<svg width="41" height="41" viewBox="0 0 41 41" fill="none" xmlns="http://www.w3.org/2000/svg">
<path d="M0.500001 21C0.499022 17.9745 1.18447 14.9882 2.50472 12.266C3.82498 9.54376 5.74564 7.15654 8.12208 5.28407C10.4985 3.41161 13.2688 2.1027 16.2244 1.4559C19.1799 0.809106 22.2437 0.841281 25.185 1.55C25.4032 1.6018 25.6035 1.71135 25.7648 1.86717C25.9261 2.02299 26.0425 2.21933 26.1018 2.43562C26.1611 2.6519 26.1611 2.88016 26.1019 3.09647C26.0426 3.31277 25.9263 3.50914 25.765 3.665C25.1194 4.29323 24.6554 5.08413 24.422 5.95418C24.1887 6.82424 24.1945 7.74117 24.4391 8.60816C24.6836 9.47516 25.1577 10.26 25.8113 10.8799C26.4649 11.4998 27.2738 11.9317 28.1525 12.13C28.4638 12.1998 28.7421 12.3735 28.9415 12.6225C29.141 12.8715 29.2498 13.181 29.25 13.5C29.2497 14.5167 29.5594 15.5093 30.1377 16.3455C30.716 17.1817 31.5355 17.8217 32.4869 18.1802C33.4383 18.5387 34.4764 18.5986 35.4627 18.352C36.449 18.1055 37.3368 17.564 38.0075 16.8C38.1624 16.6232 38.3641 16.4936 38.5893 16.4262C38.8145 16.3588 39.0542 16.3563 39.2808 16.419C39.5074 16.4816 39.7117 16.6069 39.8704 16.7804C40.029 16.954 40.1354 17.1687 40.1775 17.4C40.6742 20.1321 40.5964 22.9377 39.9493 25.6381C39.3021 28.3385 38.0998 30.8745 36.4187 33.0847C34.7376 35.2949 32.6147 37.1308 30.1852 38.4756C27.7556 39.8203 25.0727 40.6443 22.3072 40.8953C19.5417 41.1462 16.7542 40.8185 14.1223 39.933C11.4905 39.0475 9.07179 37.6236 7.02039 35.7521C4.96898 33.8805 3.32979 31.6023 2.20719 29.0625C1.08459 26.5226 0.503184 23.7769 0.500001 21ZM13 16C13 15.337 12.7366 14.7011 12.2678 14.2322C11.7989 13.7634 11.163 13.5 10.5 13.5C9.83696 13.5 9.20108 13.7634 8.73223 14.2322C8.26339 14.7011 8 15.337 8 16C8 16.663 8.26339 17.2989 8.73223 17.7678C9.20108 18.2366 9.83696 18.5 10.5 18.5C11.163 18.5 11.7989 18.2366 12.2678 17.7678C12.7366 17.2989 13 16.663 13 16ZM20.5 23.5C21.163 23.5 21.7989 23.2366 22.2678 22.7678C22.7366 22.2989 23 21.663 23 21C23 20.337 22.7366 19.7011 22.2678 19.2322C21.7989 18.7634 21.163 18.5 20.5 18.5C19.837 18.5 19.2011 18.7634 18.7322 19.2322C18.2634 19.7011 18 20.337 18 21C18 21.663 18.2634 22.2989 18.7322 22.7678C19.2011 23.2366 19.837 23.5 20.5 23.5ZM28 31C28 30.337 27.7366 29.7011 27.2678 29.2322C26.7989 28.7634 26.163 28.5 25.5 28.5C24.837 28.5 24.2011 28.7634 23.7322 29.2322C23.2634 29.7011 23 30.337 23 31C23 31.663 23.2634 32.2989 23.7322 32.7678C24.2011 33.2366 24.837 33.5 25.5 33.5C26.163 33.5 26.7989 33.2366 27.2678 32.7678C27.7366 32.2989 28 31.663 28 31ZM13 31C13.663 31 14.2989 30.7366 14.7678 30.2678C15.2366 29.7989 15.5 29.163 15.5 28.5C15.5 27.837 15.2366 27.2011 14.7678 26.7322C14.2989 26.2634 13.663 26 13 26C12.337 26 11.7011 26.2634 11.2322 26.7322C10.7634 27.2011 10.5 27.837 10.5 28.5C10.5 29.163 10.7634 29.7989 11.2322 30.2678C11.7011 30.7366 12.337 31 13 31Z" fill="#95BD52"/>
</svg>
