<svg width="22" height="22" viewBox="0 0 22 22" fill="none" xmlns="http://www.w3.org/2000/svg">
<path d="M3.4751 0.216797L0.5 21.7833H1.34889L4.32399 0.216797H3.47519H3.4751ZM17.6802 0.216797L20.6509 21.7833H21.5L18.5293 0.216797H17.6802ZM15.1487 0.227688L9.19035 0.244479C6.52018 2.12803 5.66607 4.69091 6.4188 7.8697C5.41432 6.44749 4.94533 4.9995 4.9074 3.41183L3.70674 12.1148C3.75399 11.9496 3.80798 11.7831 3.87111 11.6151L3.69819 12.1771L3.47618 13.786C3.49463 15.5084 4.31373 16.9361 5.31695 17.7525C4.48363 17.4451 3.72613 17.0588 3.10092 16.5071L2.68665 19.5091C4.6229 20.4455 6.67388 20.6139 8.11131 20.3159C6.60207 21.1697 4.90115 21.6514 2.46968 21.0822L2.37384 21.7765H12.1634C15.478 21.1178 17.4422 19.2526 17.9699 17.7279C18.1292 19.1151 17.846 20.4549 16.2838 21.7765H19.5793L17.7096 8.20283C17.0245 6.6006 15.4101 5.51987 14.3487 5.49283C14.8381 5.32878 15.3213 5.22427 15.8023 5.23053C16.3247 5.23733 16.8444 5.37574 17.3663 5.70974L17.177 4.33572C16.2157 3.47541 15.086 2.9279 14.0759 2.70413C14.3702 2.68248 14.6628 2.671 14.9539 2.67304C15.6392 2.67776 16.3161 2.75781 16.9868 2.95485L16.7968 1.57539C14.4262 1.48449 12.447 2.17785 11.3503 3.04112C11.9659 1.97242 13.3541 0.877395 15.1487 0.227643L15.1487 0.227688ZM11.4896 1.72818C8.39456 3.4111 8.25574 5.46115 9.86524 7.27118C9.5221 4.11636 13.5072 2.27864 15.2179 4.5923C13.3791 3.67699 11.7177 4.94808 11.7888 6.75798C12.8342 5.66899 16.2289 6.15592 15.3792 8.40028C14.8708 6.88926 12.8262 7.03461 12.5153 7.7754C11.8517 9.35762 15.4104 8.43713 16.9302 10.7834C16.082 10.2899 14.7821 10.8052 15.1654 11.4455C16.6179 13.871 18.9689 16.5818 15.7639 18.1175C16.8244 16.3623 16.2492 15.1345 14.7807 14.4222C15.9346 17.451 14.5513 21.8517 10.1097 20.4664C12.9368 19.9471 13.6354 17.6266 12.6863 16.6805C11.6237 19.4201 7.19057 21.0903 4.52215 18.4255C7.16307 19.4482 8.98953 18.7572 9.95059 17.2279C8.3357 18.2007 5.65914 17.5426 4.82137 15.2776C6.11247 16.6021 7.84066 17.0004 8.92474 16.2014C9.51945 15.7631 9.29834 15.0642 8.54003 14.8671C7.43629 14.5803 5.75084 14.2839 5.09503 13.2068C6.07243 13.4792 7.04982 13.6922 8.02721 13.0536C6.49804 12.0521 4.35801 10.7506 5.76178 8.50298C5.80713 10.0981 6.53705 11.0695 8.15541 10.6927C8.57319 10.5955 8.91133 9.99063 8.54012 9.63208C5.78918 6.97553 6.39923 2.35284 11.4895 1.72832L11.4896 1.72818Z" fill="#95BD52"/>
</svg>
