<svg width="100" height="100" viewBox="0 0 100 100" fill="none" xmlns="http://www.w3.org/2000/svg">
<path d="M18.3701 4.27734L3.71054 18.9375L12.0557 23.5469L6.78613 28.8109L27.8027 41.4824C19.9037 55.1832 21.8027 72.9414 33.5059 84.6383C47.4912 98.6238 70.1732 98.6201 84.1613 84.6383C98.1496 70.6564 98.1539 47.9871 84.1685 34.0094C72.4664 22.3145 54.6967 20.4215 40.9881 28.3107L28.3105 7.30762L26.6621 8.95449L23.0316 12.5814L18.3701 4.27734ZM27.5935 13.1832L39.7687 33.3541L41.3504 32.3291C49.9851 26.7309 60.6891 25.6799 70.0938 29.1889C69.8672 29.1838 69.6391 29.1811 69.4096 29.1811C61.7947 29.1811 55.6217 32.073 55.6217 35.6406C55.6217 39.209 61.7947 42.1006 69.4096 42.1006C75.5678 42.1006 80.7816 40.2092 82.5516 37.5986C85.6652 40.9854 87.9211 44.8689 89.3191 48.9762C87.8035 48.3146 85.7488 47.6664 83.2836 47.1084C77.1541 45.7217 68.5283 44.8398 59.0053 44.8398C49.4824 44.8398 40.8568 45.7215 34.7271 47.1084C32.0494 47.7143 29.8449 48.4268 28.3027 49.1471C29.1616 46.574 30.3441 44.1205 31.8219 41.8457L32.8498 40.2629L12.6682 28.0949L15.3818 25.384L24.5492 30.4471L30.0012 24.9949L24.8879 15.8865L27.5939 13.183L27.5935 13.1832ZM27.3812 52.4971C27.4754 52.5518 27.573 52.6064 27.6754 52.6611C29.2164 53.4854 31.6617 54.3187 34.7268 55.0121C40.8562 56.3988 49.482 57.2807 59.0049 57.2807C68.5279 57.2807 77.1537 56.399 83.2832 55.0121C86.3471 54.3187 88.7916 53.4861 90.3328 52.6619C90.5739 53.8 90.753 54.9503 90.8691 56.1078C89.0269 56.9432 86.7277 57.6494 84.0187 58.2625C77.5334 59.7299 68.7316 60.6135 59.0051 60.6135C49.2781 60.6135 40.4766 59.7299 33.9914 58.2625C31.1262 57.6141 28.718 56.8621 26.8254 55.9625C26.9473 54.798 27.1328 53.641 27.381 52.4967L27.3812 52.4971Z" fill="#95BD52"/>
</svg>
