<svg width="21" height="23" viewBox="0 0 21 23" fill="none" xmlns="http://www.w3.org/2000/svg">
<path d="M1.13337 0.835449L0 3.12138C1.23999 3.73206 2.61076 4.21441 4.05779 4.57166L0.0886658 22.163H4.67025L6.49898 5.46589L6.54464 5.04395L6.96314 5.09698C9.31217 5.39681 11.7784 5.38152 14.1256 5.07042L14.5441 5.01596L14.5911 5.43938L16.4198 22.1629H21L17.0239 4.54233C18.4272 4.18812 19.7567 3.71516 20.9626 3.12138L19.8308 0.835449C14.8468 3.29013 6.11718 3.29013 1.13337 0.835449ZM13.8126 5.94798C13.1822 6.02183 12.5497 6.07494 11.9159 6.10724C10.9492 6.57224 10.4733 7.28168 10.3504 8.53983C11.5585 7.17277 12.7902 6.92453 13.9497 7.20268L13.8125 5.94793L13.8126 5.94798ZM7.27613 5.97167L6.83148 10.0391C7.21066 8.36545 8.03024 6.76575 9.26424 6.12123C8.59756 6.09441 7.93337 6.04522 7.27618 5.97172L7.27613 5.97167ZM10.1564 6.56692C8.61055 7.32738 6.93326 11.4482 8.46488 13.8508C7.41574 13.993 6.81782 13.5671 6.54056 12.6883L6.34936 14.4376C6.75975 15.8768 7.71578 16.4049 8.86941 16.4049C8.30639 17.3649 6.78355 17.4677 6.0791 16.9052L6.00573 17.5843C6.48054 18.8677 7.6738 19.5424 9.30162 19.4663C8.48744 20.5253 7.9347 20.5449 6.50581 20.0923C8.23789 22.2715 11.0972 20.9231 11.787 18.6825C12.403 19.68 11.6548 21.543 9.81973 21.7117C13.4956 22.301 14.4915 18.8978 12.3523 16.1493C13.2909 16.2573 14.4482 16.6456 15.1148 17.8623L14.6354 13.4707C13.5126 12.0578 11.2874 12.5901 11.6846 11.3973C11.8864 10.7915 13.2178 10.6576 13.548 11.8933C14.0995 10.0577 11.8963 9.67126 11.2177 10.5618C11.9466 9.2435 13.4427 9.3124 14.2822 10.2418L14.0592 8.2074C12.5809 7.61921 10.8334 8.58503 10.1052 10.5617C9.53733 9.61488 9.1621 7.58631 10.1565 6.56697L10.1564 6.56692ZM14.2364 17.9783C14.6437 19.8992 13.9066 21.6283 12.2498 22.1365L15.5844 22.1476L15.288 19.4369C14.9537 18.7892 14.6594 18.3476 14.2364 17.9782V17.9783ZM5.70378 20.3382L5.50428 22.1644H8.51196C7.28194 21.7932 6.35171 21.3353 5.70374 20.3382L5.70378 20.3382Z" fill="#95BD52"/>
</svg>
