<svg width="23" height="26" viewBox="0 0 23 26" fill="none" xmlns="http://www.w3.org/2000/svg">
<path d="M1.67856 25.5C1.44176 25.5 1.21466 25.4059 1.04722 25.2385C0.879774 25.071 0.785706 24.8439 0.785706 24.6071C0.785706 24.3703 0.879774 24.1432 1.04722 23.9758C1.21466 23.8084 1.44176 23.7143 1.67856 23.7143H3.46428V21.9286C3.46391 20.4124 3.89247 18.9271 4.70044 17.6442C5.50841 16.3613 6.66283 15.3332 8.03035 14.6786C8.54821 14.4304 8.82142 14.0054 8.82142 13.625V12.375C8.82142 11.9946 8.54642 11.5696 8.03035 11.3214C6.66283 10.6668 5.50841 9.63865 4.70044 8.35575C3.89247 7.07286 3.46391 5.58756 3.46428 4.07143V2.28571H1.67856C1.44176 2.28571 1.21466 2.19165 1.04722 2.0242C0.879774 1.85676 0.785706 1.62966 0.785706 1.39286C0.785706 1.15606 0.879774 0.928955 1.04722 0.761512C1.21466 0.594069 1.44176 0.5 1.67856 0.5H21.3214C21.5582 0.5 21.7853 0.594069 21.9528 0.761512C22.1202 0.928955 22.2143 1.15606 22.2143 1.39286C22.2143 1.62966 22.1202 1.85676 21.9528 2.0242C21.7853 2.19165 21.5582 2.28571 21.3214 2.28571H19.5357V4.07143C19.5361 5.58756 19.1075 7.07286 18.2995 8.35575C17.4916 9.63865 16.3372 10.6668 14.9696 11.3214C14.4518 11.5696 14.1786 11.9946 14.1786 12.375V13.625C14.1786 14.0054 14.4536 14.4304 14.9696 14.6786C16.3372 15.3332 17.4916 16.3613 18.2995 17.6442C19.1075 18.9271 19.5361 20.4124 19.5357 21.9286V23.7143H21.3214C21.5582 23.7143 21.7853 23.8084 21.9528 23.9758C22.1202 24.1432 22.2143 24.3703 22.2143 24.6071C22.2143 24.8439 22.1202 25.071 21.9528 25.2385C21.7853 25.4059 21.5582 25.5 21.3214 25.5H1.67856ZM5.24999 2.28571V4.07143C5.24999 5.03036 5.46428 5.9375 5.85178 6.75H17.1482C17.5339 5.9375 17.75 5.03036 17.75 4.07143V2.28571H5.24999ZM10.6071 13.625C10.6071 14.8768 9.75356 15.8321 8.80178 16.2893C7.73802 16.7984 6.84001 17.5981 6.21151 18.596C5.58301 19.5939 5.24967 20.7493 5.24999 21.9286C5.24999 21.9286 6.79642 19.6089 10.6071 19.2857V13.625ZM12.3928 13.625V19.2857C16.2036 19.6089 17.75 21.9286 17.75 21.9286C17.7503 20.7493 17.417 19.5939 16.7885 18.596C16.16 17.5981 15.262 16.7984 14.1982 16.2893C13.2464 15.8321 12.3928 14.8768 12.3928 13.625Z" fill="#95BD52"/>
</svg>
