<svg width="22" height="25" viewBox="0 0 22 25" fill="none" xmlns="http://www.w3.org/2000/svg">
<path d="M0.892857 25C0.656057 25 0.428955 24.9059 0.261512 24.7385C0.0940688 24.571 0 24.3439 0 24.1071C0 23.8703 0.0940688 23.6432 0.261512 23.4758C0.428955 23.3084 0.656057 23.2143 0.892857 23.2143H2.67857V21.4286C2.6782 19.9124 3.10676 18.4271 3.91473 17.1442C4.7227 15.8613 5.87713 14.8332 7.24464 14.1786C7.7625 13.9304 8.03571 13.5054 8.03571 13.125V11.875C8.03571 11.4946 7.76071 11.0696 7.24464 10.8214C5.87713 10.1668 4.7227 9.13865 3.91473 7.85575C3.10676 6.57286 2.6782 5.08756 2.67857 3.57143V1.78571H0.892857C0.656057 1.78571 0.428955 1.69165 0.261512 1.5242C0.0940688 1.35676 0 1.12966 0 0.892857C0 0.656057 0.0940688 0.428955 0.261512 0.261512C0.428955 0.0940686 0.656057 0 0.892857 0H20.5357C20.7725 0 20.9996 0.0940686 21.1671 0.261512C21.3345 0.428955 21.4286 0.656057 21.4286 0.892857C21.4286 1.12966 21.3345 1.35676 21.1671 1.5242C20.9996 1.69165 20.7725 1.78571 20.5357 1.78571H18.75V3.57143C18.7504 5.08756 18.3218 6.57286 17.5138 7.85575C16.7059 9.13865 15.5514 10.1668 14.1839 10.8214C13.6661 11.0696 13.3929 11.4946 13.3929 11.875V13.125C13.3929 13.5054 13.6679 13.9304 14.1839 14.1786C15.5514 14.8332 16.7059 15.8613 17.5138 17.1442C18.3218 18.4271 18.7504 19.9124 18.75 21.4286V23.2143H20.5357C20.7725 23.2143 20.9996 23.3084 21.1671 23.4758C21.3345 23.6432 21.4286 23.8703 21.4286 24.1071C21.4286 24.3439 21.3345 24.571 21.1671 24.7385C20.9996 24.9059 20.7725 25 20.5357 25H0.892857ZM4.46429 1.78571V3.57143C4.46429 4.53036 4.67857 5.4375 5.06607 6.25H16.3625C16.7482 5.4375 16.9643 4.53036 16.9643 3.57143V1.78571H4.46429ZM9.82143 13.125C9.82143 14.3768 8.96786 15.3321 8.01607 15.7893C6.95231 16.2984 6.05431 17.0981 5.42581 18.096C4.79731 19.0939 4.46396 20.2493 4.46429 21.4286C4.46429 21.4286 6.01071 19.1089 9.82143 18.7857V13.125ZM11.6071 13.125V18.7857C15.4179 19.1089 16.9643 21.4286 16.9643 21.4286C16.9646 20.2493 16.6313 19.0939 16.0028 18.096C15.3743 17.0981 14.4763 16.2984 13.4125 15.7893C12.4607 15.3321 11.6071 14.3768 11.6071 13.125Z" fill="#4ECB71"/>
</svg>
