<svg width="21" height="23" viewBox="0 0 21 23" fill="none" xmlns="http://www.w3.org/2000/svg">
<path d="M15.7067 0.969914C15.0121 0.962486 14.4652 1.17551 14.2583 1.62601C13.2451 3.83249 12.0901 5.50209 10.7401 6.84275C10.8768 6.8885 11.0097 6.94476 11.1377 7.01102C11.7153 7.3094 12.2616 7.80189 12.7084 8.38295C13.1551 8.96396 13.5024 9.63349 13.6327 10.3179C13.6659 10.4917 13.6843 10.6686 13.6842 10.8447C15.4176 9.76111 17.4677 9.01102 19.9505 8.56225C20.6137 8.44229 21.0025 7.28867 20.9026 5.95317L19.3388 5.90869L20.6982 4.80498C20.5136 4.1597 20.2083 3.52597 19.7572 2.99371C19.0665 2.17909 18.1367 1.59808 17.2342 1.27292L16.0793 1.96656L16.2044 1.01021C16.032 0.985749 15.8659 0.971516 15.7068 0.96987L15.7067 0.969914ZM10.0743 7.56005C10.027 7.56236 9.98266 7.5701 9.94085 7.58096C9.40815 8.03707 8.84617 8.45265 8.25333 8.83888C8.29078 8.85356 8.32761 8.86855 8.36453 8.88479C8.99274 9.16021 9.585 9.64741 10.0757 10.247C10.6698 10.973 11.1264 11.8901 11.2155 12.8158C11.6752 12.3547 12.1603 11.9287 12.6764 11.5383C12.8586 11.2467 12.8957 10.8948 12.8154 10.4735C12.7183 9.96376 12.431 9.38684 12.0481 8.88888C11.6652 8.39096 11.1861 7.97159 10.7554 7.74905C10.4862 7.61 10.2592 7.55111 10.0742 7.56001L10.0743 7.56005ZM7.3206 9.48528C7.259 9.48764 7.20095 9.49729 7.1441 9.51028C5.4983 10.4338 3.62619 11.1999 1.48113 12.0012C1.50666 12.0031 1.53184 12.0054 1.55764 12.0082C2.03034 12.0596 2.49512 12.2309 2.94345 12.4919L4.6198 11.7608L3.91642 13.2162C4.18309 13.4578 4.44143 13.7267 4.6879 14.0168C5.61133 15.1037 6.37658 16.5018 6.7827 17.9353C6.78278 17.9357 6.78256 17.9362 6.7827 17.9367C6.91525 18.4041 7.00999 18.867 7.06346 19.3156C7.99712 17.161 9.03753 15.3452 10.2814 13.8444C10.6061 12.889 10.1842 11.6912 9.43346 10.7739C9.01355 10.2607 8.50042 9.85234 8.03097 9.64652C7.76693 9.5307 7.52967 9.47718 7.3206 9.48528ZM13.6203 11.9248C13.2951 12.1494 12.977 12.3923 12.6667 12.6504C14.4086 13.0623 15.378 14.2393 16.2544 15.4151C16.7198 16.0397 17.1706 16.6655 17.7278 17.225C18.8038 17.6319 19.648 17.5088 20.5704 16.5605C16.4708 15.3248 16.2953 12.4411 13.6202 11.9247L13.6203 11.9248ZM1.25174 12.8241C0.768099 12.8341 0.439517 13.0801 0.213375 13.5622C-0.0450596 14.1132 -0.103063 15.0065 0.232858 16.1005C0.488624 16.9336 0.967685 17.7782 1.51169 18.3968C2.05569 19.0153 2.66375 19.3788 3.08516 19.3934H3.08659C3.25192 19.3992 3.37807 19.3631 3.47855 19.2711L3.47023 19.2628L3.56333 19.1696C3.59861 19.1177 3.63094 19.0563 3.66061 18.9834C3.78561 18.6764 3.80651 18.1582 3.57859 17.5155C3.27234 16.6518 2.72811 16.0951 2.09403 15.9684L1.07239 15.7654L1.9537 15.2094L3.66488 14.1336C2.92427 13.3853 2.12806 12.9056 1.46859 12.8339C1.39297 12.8257 1.32078 12.8227 1.2517 12.8242L1.25174 12.8241ZM11.7604 13.0646L10.6693 14.1933C15.137 14.9885 13.1357 20.4653 17.7556 22.0303L16.6533 19.4824C18.1108 20.2008 19.6509 20.4887 21 20.0176C14.9608 18.1517 16.7156 14.3692 11.7604 13.0646ZM4.22219 14.7646L3.0671 15.4916C3.65336 15.8697 4.09951 16.4953 4.36261 17.2375C4.47693 17.5597 4.54645 17.8693 4.5739 18.1618L5.61653 17.1221C5.25713 16.2685 4.76984 15.4511 4.22228 14.7646L4.22219 14.7646ZM5.92919 17.9839L4.05819 19.8521L4.05125 19.8452C3.86198 20.0205 3.63063 20.1461 3.37576 20.1983C4.41074 20.8598 5.36157 21.0588 5.90282 20.6236C6.0923 20.4712 6.2161 20.2517 6.27957 19.9828C6.26133 19.4186 6.16383 18.7989 5.98346 18.1633C5.96647 18.1034 5.94761 18.0438 5.92919 17.9839Z" fill="#95BD52"/>
</svg>
