<svg width="21" height="22" viewBox="0 0 21 22" fill="none" xmlns="http://www.w3.org/2000/svg">
<path d="M15.5 8.00928C14.837 8.00928 14.2011 7.74589 13.7322 7.27704C13.2634 6.8082 13 6.17232 13 5.50928C13 4.84624 13.2634 4.21035 13.7322 3.74151C14.2011 3.27267 14.837 3.00928 15.5 3.00928C16.163 3.00928 16.7989 3.27267 17.2678 3.74151C17.7366 4.21035 18 4.84624 18 5.50928C18 6.17232 17.7366 6.8082 17.2678 7.27704C16.7989 7.74589 16.163 8.00928 15.5 8.00928ZM12.43 7.15928L0 19.5993L1.41 21.0093L13.85 8.57928C13.25 8.24928 12.76 7.75928 12.43 7.15928ZM11 4.00928L11.63 2.63928L13 2.00928L11.63 1.37928L11 0.00927734L10.38 1.37928L9 2.00928L10.38 2.63928L11 4.00928ZM19 4.00928L19.63 2.63928L21 2.00928L19.63 1.37928L19 0.00927734L18.38 1.37928L17 2.00928L18.38 2.63928L19 4.00928ZM19 8.00928L18.38 9.37928L17 10.0093L18.38 10.6393L19 12.0093L19.63 10.6393L21 10.0093L19.63 9.37928L19 8.00928Z" fill="#95BD52"/>
</svg>
